<svg version="1.1" xmlns="http://www.w3.org/2000/svg"
     width="32px" height="44px" viewBox="0 0 32 44" xml:space="preserve">
  <g>
    <path fill="#2D66D1" d="M3.069,0h25.927C30.629,0,32,1.359,32,3.041v37.918C32,42.642,30.629,44,28.931,44H3.069
      C1.372,44,0,42.642,0,40.959V3.041C0,1.359,1.372,0,3.069,0z"/>
      
    <path fill="none" d="M3.2,43.353c-1.371,0-2.547-1.164-2.547-2.588V3.235c0-1.424,1.176-2.588,2.547-2.588h25.6
      c1.371,0,2.547,1.165,2.547,2.588v37.529c0,1.424-1.176,2.588-2.547,2.588H3.2z"/>
      
  <path fill="#fff" d="M5.225,12.941H3.918V5.176H2.612V4.529l2.612-1.294V12.941z"/>
    <path fill="#fff" d="M11.755,9.447c0,1.035-0.261,1.941-0.719,2.523c-0.457,0.647-1.11,0.906-1.894,0.906
      s-1.437-0.324-1.894-0.906c-0.457-0.647-0.718-1.488-0.718-2.523V6.665c0-1.035,0.261-1.876,0.718-2.523
      c0.457-0.582,1.11-0.906,1.894-0.906s1.437,0.324,1.894,0.971c0.458,0.647,0.719,1.488,0.719,2.523V9.447z M10.449,6.471
      c0-0.647,0.065-1.229-0.196-1.618C9.992,4.465,9.6,4.271,9.143,4.271c-0.458,0-0.849,0.194-1.11,0.583S7.837,5.824,7.837,6.471
      v3.235c0,0.647-0.065,1.229,0.196,1.618c0.261,0.388,0.653,0.582,1.11,0.582c0.457,0,0.849-0.194,1.11-0.582
      c0.261-0.389,0.196-0.971,0.196-1.618V6.471z"/>
    <polygon fill="#ffff"  transform="translate(0 -18) scale(2.8)" points="6.857,13.8 10.0,17.276 6.857,20.752 3.714,17.276"/>
      
    <polygon fill="#ffff" transform="translate(-3.5 -6) scale(1.5)" points="6.857,13.8 10.0,17.276 6.857,20.752 3.714,17.276"/>
  </g>
</svg>
