<svg version="1.1" xmlns="http://www.w3.org/2000/svg"
     width="32px" height="44px" viewBox="0 0 32 44" xml:space="preserve">
  <g>
    <path fill="#EA3200" d="M3.069,0h25.927C30.629,0,32,1.359,32,3.041v37.917c0,1.683-1.371,3.041-3.069,3.041H3.069
      C1.372,43.999,0,42.641,0,40.958V3.041C0,1.359,1.372,0,3.069,0z"/>

   <path fill="#fff" d="M5.225,12.941H3.918V5.177H2.612V4.529l2.612-1.294V12.941z"/>
    <path fill="#fff" d="M11.755,9.447c0,1.035-0.261,1.941-0.719,2.523c-0.457,0.647-1.11,0.906-1.894,0.906
      s-1.437-0.323-1.894-0.906c-0.457-0.647-0.718-1.488-0.718-2.523V6.665c0-1.035,0.261-1.876,0.718-2.523
      c0.457-0.582,1.11-0.906,1.894-0.906s1.437,0.324,1.894,0.971c0.458,0.647,0.719,1.488,0.719,2.523V9.447z M10.449,6.471
      c0-0.647,0.065-1.229-0.196-1.618C9.992,4.465,9.6,4.271,9.143,4.271c-0.458,0-0.849,0.194-1.11,0.582S7.837,5.824,7.837,6.471
      v3.235c0,0.647-0.065,1.229,0.196,1.618s0.653,0.582,1.11,0.582c0.457,0,0.849-0.194,1.11-0.582
      c0.261-0.388,0.196-0.971,0.196-1.618V6.471z"/>

    <path fill="#fff" transform="translate(1.3 13) scale(0.5)" d="M2 9.1371C2 14 6.01943 16.5914 8.96173 18.9109C10 19.7294 11 20.5 12 20.5C13 20.5 14 19.7294 15.0383 18.9109C17.9806 16.5914 22 14 22 9.1371C22 4.27416 16.4998 0.825464 12 5.50063C7.50016 0.825464 2 4.27416 2 9.1371Z"/>
    <path fill="#fff" transform="translate(7 19) scale(1)" d="M2 9.1371C2 14 6.01943 16.5914 8.96173 18.9109C10 19.7294 11 20.5 12 20.5C13 20.5 14 19.7294 15.0383 18.9109C17.9806 16.5914 22 14 22 9.1371C22 4.27416 16.4998 0.825464 12 5.50063C7.50016 0.825464 2 4.27416 2 9.1371Z"/>
  </g>
</svg>