<svg version="1.1" xmlns="http://www.w3.org/2000/svg"
     width="32px" height="44px" viewBox="0 0 32 44" xml:space="preserve">
  <g>
    <path fill="#51A533" d="M3.069,0h25.927C30.629,0,32,1.359,32,3.042v37.917C32,42.642,30.629,44,28.931,44H3.069
      C1.372,44,0,42.642,0,40.959V3.042C0,1.359,1.372,0,3.069,0z"/>

    <path fill="none" d="M3.2,43.354c-1.372,0-2.547-1.165-2.547-2.589V3.235c0-1.424,1.175-2.588,2.547-2.588h25.6
      c1.372,0,2.548,1.165,2.548,2.588v37.529c0,1.424-1.176,2.589-2.548,2.589H3.2z"/>

     <path fill="#fff" d="M9.796,12.941H3.918v-1.294l3.004-3.17C7.445,7.83,7.771,7.312,7.968,6.924
      c0.196-0.389,0.261-0.777,0.261-1.165c0-0.453-0.13-0.776-0.392-1.1C7.576,4.4,7.249,4.206,6.792,4.206
      C6.27,4.271,5.877,4.4,5.616,4.788C5.29,5.112,5.225,5.306,5.225,5.823H3.918c0-0.776,0.261-1.229,0.784-1.747
      c0.522-0.582,1.241-0.841,2.155-0.841c0.849,0,1.502,0.259,1.959,0.712c0.457,0.453,0.718,1.1,0.718,1.812
      c0,0.518-0.13,0.971-0.392,1.488C8.882,7.7,8.49,8.347,7.902,9.059l-2.025,2.588h3.918V12.941z"/>

    <path fill="#fff"
      transform="translate(4 -13) scale(2.3)"
      d="M6.857,23.294h2.547L9.339,23.1c-2.417-0.194-2.286-3.494-2.286-3.494
      s0.262,1.747,2.09,1.747c1.959,0,1.959-1.941,1.959-1.941
      c0-1.359-1.306-1.941-1.959-1.941c-0.653,0-0.849,0.129-0.849,0.129
      c0.849-0.776,0.849-0.97,0.849-1.423c-0.065-1.1-1.306-1.941-2.286-1.941
      c-0.979,0-2.286,0.841-2.286,1.941
      c0,0.647,0,0.647,0.849,1.423
      c0,0-0.392-0.129-0.849-0.129
      c-0.653,0-1.959,0.583-1.959,1.941
      c0,0,0.131,1.941,1.959,1.941
      c1.959,0,2.09-1.812,2.09-1.812
      s0.065,3.235-2.286,3.494
      L4.31,23.294H6.857z"/>

    <path fill="#fff" d="M6.857,23.294h2.547L9.339,23.1c-2.417-0.194-2.286-3.494-2.286-3.494
      s0.262,1.747,2.09,1.747c1.959,0,1.959-1.941,1.959-1.941
      c0-1.359-1.306-1.941-1.959-1.941c-0.653,0-0.849,0.129-0.849,0.129
      c0.849-0.776,0.849-0.97,0.849-1.423c-0.065-1.1-1.306-1.941-2.286-1.941
      c-0.979,0-2.286,0.841-2.286,1.941
      c0,0.647,0,0.647,0.849,1.423
      c0,0-0.392-0.129-0.849-0.129
      c-0.653,0-1.959,0.583-1.959,1.941
      c0,0,0.131,1.941,1.959,1.941
      c1.959,0,2.09-1.812,2.09-1.812
      s0.065,3.235-2.286,3.494
      L4.31,23.294H6.857z"/>
  </g>
</svg>