<svg version="1.1" xmlns="http://www.w3.org/2000/svg"
     width="32px" height="44px" viewBox="0 0 32 44" xml:space="preserve">
  <g>
    <path fill="#2D66D1" d="M3.069,0h25.927C30.629,0,32,1.359,32,3.041v37.918C32,42.642,30.629,44,28.931,44H3.069
      C1.372,44,0,42.642,0,40.959V3.041C0,1.359,1.372,0,3.069,0z"/>
      
    <path fill="none" d="M3.2,43.353c-1.371,0-2.547-1.164-2.547-2.588V3.235c0-1.424,1.176-2.588,2.547-2.588h25.6
      c1.371,0,2.547,1.165,2.547,2.588v37.529c0,1.424-1.176,2.588-2.547,2.588H3.2z"/>
      
   <path fill="#ffff" d="M9.796,12.941H3.918v-1.294l3.004-3.17C7.445,7.83,7.771,7.312,7.967,6.924
      c0.196-0.389,0.261-0.777,0.261-1.165c0-0.453-0.131-0.776-0.392-1.1C7.576,4.4,7.249,4.206,6.792,4.206
      C6.27,4.271,5.877,4.4,5.616,4.788C5.29,5.112,5.225,5.306,5.225,5.824H3.918c0-0.777,0.261-1.229,0.784-1.748
      c0.522-0.582,1.241-0.841,2.155-0.841c0.849,0,1.502,0.259,1.959,0.712c0.457,0.453,0.718,1.1,0.718,1.812
      c0,0.518-0.131,0.971-0.392,1.488C8.882,7.7,8.49,8.347,7.902,9.059l-2.024,2.588h3.918V12.941z"/>
      
    <polygon fill="#ffff"  transform="translate(0 -18) scale(2.8)" points="6.857,13.8 10.0,17.276 6.857,20.752 3.714,17.276"/>
      
    <polygon fill="#ffff" transform="translate(-3.5 -6) scale(1.5)" points="6.857,13.8 10.0,17.276 6.857,20.752 3.714,17.276"/>
  </g>
</svg>