<svg version="1.1" xmlns="http://www.w3.org/2000/svg"
     width="32px" height="44px" viewBox="0 0 32 44" xml:space="preserve">
  <g>
    <path fill="#51A533" d="M3.069,0h25.927C30.629,0,32,1.359,32,3.042v37.917C32,42.642,30.629,44,28.931,44H3.069
      C1.372,44,0,42.642,0,40.959V3.042C0,1.359,1.372,0,3.069,0z"/>

    <path fill="none" d="M3.2,43.354c-1.372,0-2.547-1.165-2.547-2.589V3.235c0-1.424,1.175-2.588,2.547-2.588h25.6
      c1.372,0,2.548,1.165,2.548,2.588v37.529c0,1.424-1.176,2.589-2.548,2.589H3.2z"/>

        <path fill="#fff" d="M6.857,7.441c0.588,0,0.979-0.13,1.175-0.453c0.262-0.259,0.327-0.647,0.327-1.165
      c0-0.453-0.13-0.841-0.392-1.165c-0.261-0.324-0.653-0.453-1.11-0.453c-0.457,0-0.914,0.129-1.175,0.453
      C5.355,4.982,5.225,5.371,5.225,5.824H3.918c0-0.712,0.326-1.359,0.849-1.812c0.588-0.518,1.241-0.777,2.09-0.777
      c0.849,0,1.567,0.194,2.025,0.647C9.404,4.335,9.6,4.982,9.6,5.824c0,0.453-0.131,0.841-0.327,1.229
      C9.078,7.441,8.751,7.7,8.294,7.895c0.457,0.194,0.849,0.453,1.044,0.841C9.6,9.124,9.73,9.577,9.73,10.159
      c0,0.841-0.261,1.553-0.784,2.005c-0.522,0.518-1.241,0.712-2.09,0.712c-0.784,0-1.502-0.259-2.09-0.712
      c-0.587-0.453-0.849-1.035-0.849-1.812h1.306c0,0.453,0.065,0.777,0.392,1.1c0.327,0.324,0.719,0.453,1.241,0.453
      c0.522,0,0.915-0.129,1.175-0.453c0.327-0.323,0.458-0.712,0.458-1.229c0-0.583-0.131-1.035-0.392-1.359
      C7.836,8.606,7.771,8.412,7.184,8.412H5.877V7.118L6.857,7.441z"/>

    <path fill="#fff"
      transform="translate(4 -13) scale(2.3)"
      d="M6.857,23.294h2.547L9.339,23.1c-2.417-0.194-2.286-3.494-2.286-3.494
      s0.262,1.747,2.09,1.747c1.959,0,1.959-1.941,1.959-1.941
      c0-1.359-1.306-1.941-1.959-1.941c-0.653,0-0.849,0.129-0.849,0.129
      c0.849-0.776,0.849-0.97,0.849-1.423c-0.065-1.1-1.306-1.941-2.286-1.941
      c-0.979,0-2.286,0.841-2.286,1.941
      c0,0.647,0,0.647,0.849,1.423
      c0,0-0.392-0.129-0.849-0.129
      c-0.653,0-1.959,0.583-1.959,1.941
      c0,0,0.131,1.941,1.959,1.941
      c1.959,0,2.09-1.812,2.09-1.812
      s0.065,3.235-2.286,3.494
      L4.31,23.294H6.857z"/>

    <path fill="#fff" d="M6.857,23.294h2.547L9.339,23.1c-2.417-0.194-2.286-3.494-2.286-3.494
      s0.262,1.747,2.09,1.747c1.959,0,1.959-1.941,1.959-1.941
      c0-1.359-1.306-1.941-1.959-1.941c-0.653,0-0.849,0.129-0.849,0.129
      c0.849-0.776,0.849-0.97,0.849-1.423c-0.065-1.1-1.306-1.941-2.286-1.941
      c-0.979,0-2.286,0.841-2.286,1.941
      c0,0.647,0,0.647,0.849,1.423
      c0,0-0.392-0.129-0.849-0.129
      c-0.653,0-1.959,0.583-1.959,1.941
      c0,0,0.131,1.941,1.959,1.941
      c1.959,0,2.09-1.812,2.09-1.812
      s0.065,3.235-2.286,3.494
      L4.31,23.294H6.857z"/>
  </g>
</svg>