<svg version="1.1" xmlns="http://www.w3.org/2000/svg"
     width="32px" height="44px" viewBox="0 0 32 44" xml:space="preserve">
  <g>
    <path fill="#2D66D1" d="M3.069,0h25.927C30.629,0,32,1.359,32,3.041v37.918C32,42.642,30.629,44,28.931,44H3.069
      C1.372,44,0,42.642,0,40.959V3.041C0,1.359,1.372,0,3.069,0z"/>
      
    <path fill="none" d="M3.2,43.353c-1.371,0-2.547-1.164-2.547-2.588V3.235c0-1.424,1.176-2.588,2.547-2.588h25.6
      c1.371,0,2.547,1.165,2.547,2.588v37.529c0,1.424-1.176,2.588-2.547,2.588H3.2z"/>
      
   <path fill="#fff" d="M6.857,7.441c0.588,0,0.98-0.129,1.176-0.453c0.261-0.259,0.326-0.647,0.326-1.165
      c0-0.453-0.13-0.841-0.392-1.165c-0.261-0.323-0.653-0.453-1.11-0.453c-0.457,0-0.914,0.129-1.175,0.453
      C5.355,4.982,5.225,5.371,5.225,5.823H3.918c0-0.711,0.327-1.359,0.849-1.812c0.588-0.518,1.241-0.776,2.09-0.776
      c0.849,0,1.567,0.194,2.025,0.647C9.404,4.335,9.6,4.982,9.6,5.823c0,0.453-0.131,0.841-0.327,1.229S8.751,7.7,8.294,7.894
      c0.457,0.194,0.849,0.453,1.044,0.841C9.6,9.124,9.73,9.576,9.73,10.159c0,0.841-0.261,1.553-0.783,2.006
      c-0.523,0.518-1.241,0.712-2.09,0.712c-0.784,0-1.501-0.259-2.09-0.712c-0.587-0.453-0.849-1.035-0.849-1.812h1.306
      c0,0.453,0.065,0.776,0.392,1.1c0.327,0.323,0.719,0.453,1.241,0.453c0.522,0,0.915-0.129,1.176-0.453
      c0.326-0.324,0.457-0.712,0.457-1.23c0-0.582-0.131-1.035-0.392-1.358C7.837,8.605,7.771,8.412,7.184,8.412H5.877V7.118
      L6.857,7.441z"/>
    <polygon fill="#ffff"  transform="translate(0 -18) scale(2.8)" points="6.857,13.8 10.0,17.276 6.857,20.752 3.714,17.276"/>
      
    <polygon fill="#ffff" transform="translate(-3.5 -6) scale(1.5)" points="6.857,13.8 10.0,17.276 6.857,20.752 3.714,17.276"/>
  </g>
</svg>