<svg version="1.1" xmlns="http://www.w3.org/2000/svg"
     width="32px" height="44px" viewBox="0 0 32 44" xml:space="preserve">
  <g>
    <path fill="#EA3200" d="M3.069,0h25.927C30.629,0,32,1.359,32,3.041v37.917c0,1.683-1.371,3.041-3.069,3.041H3.069
      C1.372,43.999,0,42.641,0,40.958V3.041C0,1.359,1.372,0,3.069,0z"/>
      
   <path fill="#fff" d="M6.857,7.441c0.587,0,0.979-0.13,1.175-0.453c0.261-0.259,0.327-0.647,0.327-1.165
      c0-0.453-0.131-0.841-0.392-1.165c-0.262-0.324-0.653-0.453-1.11-0.453c-0.458,0-0.915,0.129-1.176,0.453
      C5.355,4.982,5.225,5.371,5.225,5.824H3.918c0-0.712,0.327-1.359,0.849-1.812c0.588-0.518,1.241-0.776,2.09-0.776
      c0.849,0,1.567,0.194,2.024,0.647C9.404,4.335,9.6,4.982,9.6,5.824c0,0.453-0.131,0.841-0.327,1.229
      C9.078,7.441,8.751,7.7,8.294,7.895c0.457,0.194,0.849,0.453,1.045,0.841C9.6,9.124,9.73,9.576,9.73,10.159
      c0,0.841-0.261,1.553-0.783,2.005c-0.523,0.518-1.241,0.712-2.09,0.712c-0.784,0-1.502-0.259-2.09-0.712
      c-0.587-0.453-0.849-1.035-0.849-1.812h1.306c0,0.453,0.065,0.776,0.392,1.1c0.327,0.324,0.719,0.453,1.241,0.453
      c0.522,0,0.914-0.129,1.175-0.453c0.327-0.324,0.457-0.712,0.457-1.229c0-0.583-0.13-1.035-0.392-1.359
      C7.837,8.606,7.771,8.412,7.184,8.412H5.877V7.118L6.857,7.441z"/>

    <path fill="#fff" transform="translate(1.3 13) scale(0.5)" d="M2 9.1371C2 14 6.01943 16.5914 8.96173 18.9109C10 19.7294 11 20.5 12 20.5C13 20.5 14 19.7294 15.0383 18.9109C17.9806 16.5914 22 14 22 9.1371C22 4.27416 16.4998 0.825464 12 5.50063C7.50016 0.825464 2 4.27416 2 9.1371Z"/>
    <path fill="#fff" transform="translate(7 19) scale(1)" d="M2 9.1371C2 14 6.01943 16.5914 8.96173 18.9109C10 19.7294 11 20.5 12 20.5C13 20.5 14 19.7294 15.0383 18.9109C17.9806 16.5914 22 14 22 9.1371C22 4.27416 16.4998 0.825464 12 5.50063C7.50016 0.825464 2 4.27416 2 9.1371Z"/>
  </g>
</svg>