<svg xmlns="http://www.w3.org/2000/svg" xmlns:xlink="http://www.w3.org/1999/xlink" version="1.1" id="Layer_1" x="0px" y="0px" width="32px" height="44px" viewBox="0 0 32 44" enable-background="new 0 0 32 44" xml:space="preserve">
  <g>
    <!-- Background rectangle fill changed -->
    <path fill="#010103" d="M3.069,0h25.927C30.629,0,32,1.359,32,3.042v37.917C32,42.642,30.629,44,28.931,44H3.069
      C1.372,44,0,42.642,0,40.959V3.042C0,1.359,1.372,0,3.069,0L3.069,0z"/>
    

  <path fill="#fff" d="M6.857,7.441c0.588,0,0.98-0.13,1.176-0.453c0.261-0.259,0.326-0.647,0.326-1.165c0-0.453-0.13-0.841-0.392-1.165
      c-0.261-0.324-0.653-0.453-1.11-0.453c-0.457,0-0.914,0.129-1.175,0.453C5.355,4.982,5.225,5.371,5.225,5.824H3.918c0-0.712,0.327-1.359,0.849-1.812
      c0.588-0.518,1.241-0.776,2.09-0.776c0.849,0,1.567,0.194,2.025,0.647C9.404,4.335,9.6,4.982,9.6,5.824c0,0.453-0.131,0.841-0.327,1.229
      C9.078,7.441,8.751,7.7,8.294,7.895c0.457,0.194,0.849,0.453,1.044,0.841C9.6,9.124,9.73,9.576,9.73,10.159c0,0.841-0.261,1.553-0.783,2.005
      c-0.523,0.518-1.241,0.712-2.09,0.712c-0.784,0-1.501-0.259-2.09-0.712c-0.587-0.388-0.849-1.035-0.849-1.812h1.306c0,0.453,0.065,0.776,0.392,1.1
      c0.327,0.324,0.719,0.453,1.241,0.453c0.522,0,0.915-0.129,1.241-0.453c0.327-0.324,0.458-0.712,0.458-1.229c0-0.583-0.131-1.035-0.392-1.359
      C7.837,8.606,7.771,8.412,7.184,8.412H5.877V7.118L6.857,7.441z"/>

    <!-- White fill replaces red shapes -->
    <path fill="#fff"  transform="translate(4 -13) scale(2.3)" d="M6.922,23.294h2.743L9.6,23.035c-1.176-0.064-1.567-0.453-2.09-0.97c-0.522-0.583-0.458-2.136-0.458-2.136 
      c0.915,1.165,1.502,1.488,1.895,1.488c0.718,0,1.371-0.194,1.894-0.97c0.522-0.777,0.196-1.941-1.633-3.171S6.792,14.3,6.792,14.3 
      s-0.588,1.747-2.417,2.977S2.22,19.67,2.743,20.447c0.588,0.711,1.306,0.906,2.024,0.906c0.458,0,0.979-0.324,1.894-1.488 
      c0,0,0.065,1.553-0.457,2.135s-0.914,0.906-2.09,0.971l-0.065,0.323H6.922L6.922,23.294z"/>

    <path fill="#fff" d="M6.922,23.294h2.743L9.6,23.035c-1.176-0.064-1.567-0.453-2.09-0.97c-0.522-0.583-0.458-2.136-0.458-2.136 
      c0.915,1.165,1.502,1.488,1.895,1.488c0.718,0,1.371-0.194,1.894-0.97c0.522-0.777,0.196-1.941-1.633-3.171S6.792,14.3,6.792,14.3 
      s-0.588,1.747-2.417,2.977S2.22,19.67,2.743,20.447c0.588,0.711,1.306,0.906,2.024,0.906c0.458,0,0.979-0.324,1.894-1.488 
      c0,0,0.065,1.553-0.457,2.135s-0.914,0.906-2.09,0.971l-0.065,0.323H6.922L6.922,23.294z"/>
     
  </g>
</svg>
