<svg version="1.1" xmlns="http://www.w3.org/2000/svg"
     width="32px" height="44px" viewBox="0 0 32 44" xml:space="preserve">
  <g>
    <path fill="#2D66D1" d="M3.069,0h25.927C30.629,0,32,1.359,32,3.041v37.918C32,42.642,30.629,44,28.931,44H3.069
      C1.372,44,0,42.642,0,40.959V3.041C0,1.359,1.372,0,3.069,0z"/>
      
    <path fill="none" d="M3.2,43.353c-1.371,0-2.547-1.164-2.547-2.588V3.235c0-1.424,1.176-2.588,2.547-2.588h25.6
      c1.371,0,2.547,1.165,2.547,2.588v37.529c0,1.424-1.176,2.588-2.547,2.588H3.2z"/>
      
    <path fill="#fff" d="M8.49,9.706h1.306V11H8.49v1.941H7.184V11H3.265V9.964l3.918-6.729H8.49V9.706z M4.571,9.706h2.612v-4.53
      L4.571,9.706z"/>
    <polygon fill="#ffff"  transform="translate(0 -18) scale(2.8)" points="6.857,13.8 10.0,17.276 6.857,20.752 3.714,17.276"/>
      
    <polygon fill="#ffff" transform="translate(-3.5 -6) scale(1.5)" points="6.857,13.8 10.0,17.276 6.857,20.752 3.714,17.276"/>
  </g>
</svg>