<svg version="1.1" xmlns="http://www.w3.org/2000/svg"
     width="32px" height="44px" viewBox="0 0 32 44" xml:space="preserve">
  <g>
    <path fill="#2D66D1" d="M3.069,0h25.927C30.629,0,32,1.359,32,3.041v37.918C32,42.642,30.629,44,28.931,44H3.069
      C1.372,44,0,42.642,0,40.959V3.041C0,1.359,1.372,0,3.069,0z"/>
      
    <path fill="none" d="M3.2,43.353c-1.371,0-2.547-1.164-2.547-2.588V3.235c0-1.424,1.176-2.588,2.547-2.588h25.6
      c1.371,0,2.547,1.165,2.547,2.588v37.529c0,1.424-1.176,2.588-2.547,2.588H3.2z"/>
      
     <path fill="#fff" d="M3.918,8.412l0.653-5.176h5.224v1.294H5.877L5.225,7.118C5.42,6.988,5.943,6.471,6.857,6.471
      c0.914,0,1.698,0.388,2.155,0.971C9.535,8.023,9.796,8.8,9.796,9.771c0,0.971-0.261,1.747-0.784,2.33s-1.306,0.906-2.286,0.906
      c-0.849,0-1.502-0.194-2.024-0.647C4.18,11.841,3.918,11,3.918,10.353h1.241c0,0.518,0.131,0.841,0.458,1.165
      c0.326,0.259,0.718,0.453,1.175,0.453c0.522,0,0.979-0.194,1.306-0.583C8.424,11,8.621,10.418,8.621,9.771
      c0-0.582-0.131-1.165-0.457-1.553C7.837,7.83,7.379,7.635,6.792,7.635c-0.522,0-0.915,0.129-1.11,0.259
      C5.42,8.023,5.355,8.153,5.159,8.412H3.918z"/>
    <polygon fill="#ffff"  transform="translate(0 -18) scale(2.8)" points="6.857,13.8 10.0,17.276 6.857,20.752 3.714,17.276"/>
      
    <polygon fill="#ffff" transform="translate(-3.5 -6) scale(1.5)" points="6.857,13.8 10.0,17.276 6.857,20.752 3.714,17.276"/>
  </g>
</svg>
