<svg version="1.1" xmlns="http://www.w3.org/2000/svg"
     width="32px" height="44px" viewBox="0 0 32 44" xml:space="preserve">
  <g>
    <path fill="#EA3200" d="M3.069,0h25.927C30.629,0,32,1.359,32,3.041v37.917c0,1.683-1.371,3.041-3.069,3.041H3.069
      C1.372,43.999,0,42.641,0,40.958V3.041C0,1.359,1.372,0,3.069,0z"/>
      
<path fill="#ffff" d="M3.918,8.412l0.653-5.176h5.225v1.294H5.877L5.225,7.118C5.42,6.988,5.943,6.47,6.857,6.47
      c0.915,0,1.698,0.389,2.155,0.971C9.535,8.023,9.796,8.8,9.796,9.771s-0.261,1.747-0.784,2.33
      c-0.522,0.582-1.306,0.906-2.286,0.906c-0.849,0-1.502-0.194-2.024-0.647C4.18,11.841,3.918,11,3.918,10.353h1.241
      c0,0.518,0.131,0.841,0.457,1.165c0.327,0.259,0.719,0.453,1.176,0.453c0.522,0,0.979-0.194,1.306-0.582
      C8.424,11,8.621,10.417,8.621,9.771c0-0.583-0.131-1.165-0.458-1.553C7.837,7.829,7.379,7.635,6.792,7.635
      c-0.522,0-0.915,0.13-1.11,0.259C5.42,8.023,5.355,8.153,5.159,8.412H3.918z"/>

    <path fill="#fff" transform="translate(1.3 13) scale(0.5)" d="M2 9.1371C2 14 6.01943 16.5914 8.96173 18.9109C10 19.7294 11 20.5 12 20.5C13 20.5 14 19.7294 15.0383 18.9109C17.9806 16.5914 22 14 22 9.1371C22 4.27416 16.4998 0.825464 12 5.50063C7.50016 0.825464 2 4.27416 2 9.1371Z"/>
    <path fill="#fff" transform="translate(7 19) scale(1)" d="M2 9.1371C2 14 6.01943 16.5914 8.96173 18.9109C10 19.7294 11 20.5 12 20.5C13 20.5 14 19.7294 15.0383 18.9109C17.9806 16.5914 22 14 22 9.1371C22 4.27416 16.4998 0.825464 12 5.50063C7.50016 0.825464 2 4.27416 2 9.1371Z"/>
  </g>
</svg>