<svg xmlns="http://www.w3.org/2000/svg" xmlns:xlink="http://www.w3.org/1999/xlink" version="1.1" id="Layer_1" x="0px" y="0px" width="32px" height="44px" viewBox="0 0 32 44" enable-background="new 0 0 32 44" xml:space="preserve">
  <g>
    <!-- Background rectangle fill changed -->
    <path fill="#010103" d="M3.069,0h25.927C30.629,0,32,1.359,32,3.042v37.917C32,42.642,30.629,44,28.931,44H3.069
      C1.372,44,0,42.642,0,40.959V3.042C0,1.359,1.372,0,3.069,0L3.069,0z"/>
    

    <path fill="#fff" d="M3.918,8.412l0.653-5.176h5.225v1.294H5.877L5.225,7.118C5.42,6.988,5.943,6.47,6.857,6.47c0.915,0,1.698,0.389,2.155,0.971C9.535,8.023,9.796,8.8,9.796,9.771s-0.261,1.747-0.784,2.33c-0.522,0.582-1.306,0.906-2.286,0.906c-0.849,0-1.502-0.194-2.024-0.647C4.18,11.841,3.918,11,3.918,10.353h1.241c0,0.518,0.131,0.841,0.457,1.165c0.327,0.259,0.719,0.453,1.176,0.453c0.522,0,0.979-0.194,1.306-0.582C8.424,11,8.621,10.417,8.621,9.771c0-0.583-0.131-1.165-0.458-1.553C7.837,7.829,7.379,7.635,6.792,7.635c-0.522,0-0.915,0.13-1.11,0.259C5.42,8.023,5.355,8.153,5.159,8.412H3.918z"/>

    <!-- White fill replaces red shapes -->
    <path fill="#fff"  transform="translate(4 -13) scale(2.3)" d="M6.922,23.294h2.743L9.6,23.035c-1.176-0.064-1.567-0.453-2.09-0.97c-0.522-0.583-0.458-2.136-0.458-2.136 
      c0.915,1.165,1.502,1.488,1.895,1.488c0.718,0,1.371-0.194,1.894-0.97c0.522-0.777,0.196-1.941-1.633-3.171S6.792,14.3,6.792,14.3 
      s-0.588,1.747-2.417,2.977S2.22,19.67,2.743,20.447c0.588,0.711,1.306,0.906,2.024,0.906c0.458,0,0.979-0.324,1.894-1.488 
      c0,0,0.065,1.553-0.457,2.135s-0.914,0.906-2.09,0.971l-0.065,0.323H6.922L6.922,23.294z"/>

    <path fill="#fff" d="M6.922,23.294h2.743L9.6,23.035c-1.176-0.064-1.567-0.453-2.09-0.97c-0.522-0.583-0.458-2.136-0.458-2.136 
      c0.915,1.165,1.502,1.488,1.895,1.488c0.718,0,1.371-0.194,1.894-0.97c0.522-0.777,0.196-1.941-1.633-3.171S6.792,14.3,6.792,14.3 
      s-0.588,1.747-2.417,2.977S2.22,19.67,2.743,20.447c0.588,0.711,1.306,0.906,2.024,0.906c0.458,0,0.979-0.324,1.894-1.488 
      c0,0,0.065,1.553-0.457,2.135s-0.914,0.906-2.09,0.971l-0.065,0.323H6.922L6.922,23.294z"/>
     
  </g>
</svg>