<svg version="1.1" xmlns="http://www.w3.org/2000/svg"
     width="32px" height="44px" viewBox="0 0 32 44" xml:space="preserve">
  <g>
    <path fill="#51A533" d="M3.069,0h25.927C30.629,0,32,1.359,32,3.042v37.917C32,42.642,30.629,44,28.931,44H3.069
      C1.372,44,0,42.642,0,40.959V3.042C0,1.359,1.372,0,3.069,0z"/>

    <path fill="none" d="M3.2,43.354c-1.372,0-2.547-1.165-2.547-2.589V3.235c0-1.424,1.175-2.588,2.547-2.588h25.6
      c1.372,0,2.548,1.165,2.548,2.588v37.529c0,1.424-1.176,2.589-2.548,2.589H3.2z"/>

    <path fill="#fff" d="M7.118,3.235c0.392,0,0.719,0.065,1.11,0.129c0.327,0.064,0.653,0.194,0.849,0.259L8.816,4.594
      C8.555,4.465,8.294,4.4,8.033,4.335C7.771,4.271,7.445,4.206,7.118,4.206c-0.587,0-1.045,0.259-1.437,0.776
      S5.159,6.147,5.159,6.924v0.388C5.42,7.053,6.073,6.536,7.053,6.536c0.98,0,1.568,0.388,2.025,0.906s0.718,1.488,0.718,2.33
      c0,0.97-0.261,1.747-0.784,2.329s-1.241,0.841-2.09,0.841s-1.567-0.324-2.155-0.971c-0.587-0.712-0.849-1.618-0.849-2.718v-2.2
      c0-1.1,0.327-2.006,0.914-2.718C5.486,3.624,6.204,3.235,7.118,3.235z M6.988,7.506c-0.392,0-1.241,0.129-1.829,1.036v0.841
      c0,0.777,0.196,1.424,0.522,1.876c0.327,0.453,0.784,0.712,1.241,0.712c0.522,0,0.915-0.194,1.175-0.582
      C8.359,11,8.49,10.482,8.49,9.835c0-0.583-0.065-1.359-0.327-1.747C7.902,7.635,7.51,7.506,6.988,7.506z"/>

    <path fill="#fff"
      transform="translate(4 -13) scale(2.3)"
      d="M6.857,23.294h2.547L9.339,23.1c-2.417-0.194-2.286-3.494-2.286-3.494
      s0.262,1.747,2.09,1.747c1.959,0,1.959-1.941,1.959-1.941
      c0-1.359-1.306-1.941-1.959-1.941c-0.653,0-0.849,0.129-0.849,0.129
      c0.849-0.776,0.849-0.97,0.849-1.423c-0.065-1.1-1.306-1.941-2.286-1.941
      c-0.979,0-2.286,0.841-2.286,1.941
      c0,0.647,0,0.647,0.849,1.423
      c0,0-0.392-0.129-0.849-0.129
      c-0.653,0-1.959,0.583-1.959,1.941
      c0,0,0.131,1.941,1.959,1.941
      c1.959,0,2.09-1.812,2.09-1.812
      s0.065,3.235-2.286,3.494
      L4.31,23.294H6.857z"/>

    <path fill="#fff" d="M6.857,23.294h2.547L9.339,23.1c-2.417-0.194-2.286-3.494-2.286-3.494
      s0.262,1.747,2.09,1.747c1.959,0,1.959-1.941,1.959-1.941
      c0-1.359-1.306-1.941-1.959-1.941c-0.653,0-0.849,0.129-0.849,0.129
      c0.849-0.776,0.849-0.97,0.849-1.423c-0.065-1.1-1.306-1.941-2.286-1.941
      c-0.979,0-2.286,0.841-2.286,1.941
      c0,0.647,0,0.647,0.849,1.423
      c0,0-0.392-0.129-0.849-0.129
      c-0.653,0-1.959,0.583-1.959,1.941
      c0,0,0.131,1.941,1.959,1.941
      c1.959,0,2.09-1.812,2.09-1.812
      s0.065,3.235-2.286,3.494
      L4.31,23.294H6.857z"/>
  </g>
</svg>