<svg version="1.1" xmlns="http://www.w3.org/2000/svg"
     width="32px" height="44px" viewBox="0 0 32 44" xml:space="preserve">
  <g>
    <path fill="#2D66D1" d="M3.069,0h25.927C30.629,0,32,1.359,32,3.041v37.918C32,42.642,30.629,44,28.931,44H3.069
      C1.372,44,0,42.642,0,40.959V3.041C0,1.359,1.372,0,3.069,0z"/>
      
    <path fill="none" d="M3.2,43.353c-1.371,0-2.547-1.164-2.547-2.588V3.235c0-1.424,1.176-2.588,2.547-2.588h25.6
      c1.371,0,2.547,1.165,2.547,2.588v37.529c0,1.424-1.176,2.588-2.547,2.588H3.2z"/>
      
    <path fill="#fff" d="M7.118,3.235c0.392,0,0.718,0.065,1.11,0.129c0.327,0.064,0.653,0.194,0.849,0.259L8.816,4.594
      C8.555,4.465,8.294,4.4,8.032,4.335C7.771,4.271,7.445,4.206,7.118,4.206c-0.588,0-1.045,0.259-1.437,0.776
      C5.29,5.5,5.159,6.147,5.159,6.924v0.388C5.42,7.053,6.073,6.535,7.053,6.535s1.568,0.389,2.024,0.906
      c0.458,0.518,0.719,1.488,0.719,2.329c0,0.971-0.261,1.747-0.784,2.33s-1.241,0.841-2.09,0.841s-1.567-0.324-2.155-0.971
      c-0.588-0.712-0.849-1.618-0.849-2.718v-2.2c0-1.1,0.326-2.006,0.914-2.717C5.485,3.624,6.204,3.235,7.118,3.235z M6.988,7.506
      c-0.392,0-1.241,0.129-1.829,1.036v0.841c0,0.777,0.196,1.424,0.522,1.876c0.327,0.453,0.784,0.712,1.241,0.712
      c0.522,0,0.914-0.194,1.175-0.583C8.359,11,8.49,10.482,8.49,9.835c0-0.583-0.065-1.359-0.327-1.747
      C7.902,7.635,7.51,7.506,6.988,7.506z"/>
    <polygon fill="#ffff"  transform="translate(0 -18) scale(2.8)" points="6.857,13.8 10.0,17.276 6.857,20.752 3.714,17.276"/>
      
    <polygon fill="#ffff" transform="translate(-3.5 -6) scale(1.5)" points="6.857,13.8 10.0,17.276 6.857,20.752 3.714,17.276"/>
  </g>
</svg>