<svg version="1.1" xmlns="http://www.w3.org/2000/svg"
     width="32px" height="44px" viewBox="0 0 32 44" xml:space="preserve">
  <g>
    <path fill="#EA3200" d="M3.069,0h25.927C30.629,0,32,1.359,32,3.041v37.917c0,1.683-1.371,3.041-3.069,3.041H3.069
      C1.372,43.999,0,42.641,0,40.958V3.041C0,1.359,1.372,0,3.069,0z"/>
      
    <path fill="#fff" d="M7.118,3.235c0.392,0,0.719,0.065,1.11,0.129c0.327,0.064,0.653,0.194,0.849,0.259L8.816,4.594
      C8.555,4.465,8.294,4.4,8.033,4.335C7.771,4.271,7.445,4.206,7.118,4.206c-0.587,0-1.045,0.259-1.437,0.776
      S5.159,6.147,5.159,6.924v0.388C5.42,7.053,6.073,6.535,7.053,6.535c0.98,0,1.568,0.389,2.025,0.906s0.718,1.488,0.718,2.329
      c0,0.971-0.261,1.747-0.784,2.33s-1.241,0.841-2.09,0.841s-1.567-0.324-2.155-0.971c-0.587-0.712-0.849-1.618-0.849-2.718v-2.2
      c0-1.1,0.327-2.006,0.914-2.717C5.486,3.624,6.204,3.235,7.118,3.235z M6.988,7.506c-0.392,0-1.241,0.129-1.829,1.036v0.841
      c0,0.777,0.196,1.424,0.522,1.876c0.327,0.453,0.784,0.712,1.241,0.712c0.522,0,0.915-0.194,1.175-0.583
      C8.359,11,8.49,10.482,8.49,9.835c0-0.583-0.065-1.359-0.327-1.747C7.902,7.635,7.51,7.506,6.988,7.506z"/>

    <path fill="#fff" transform="translate(1.3 13) scale(0.5)" d="M2 9.1371C2 14 6.01943 16.5914 8.96173 18.9109C10 19.7294 11 20.5 12 20.5C13 20.5 14 19.7294 15.0383 18.9109C17.9806 16.5914 22 14 22 9.1371C22 4.27416 16.4998 0.825464 12 5.50063C7.50016 0.825464 2 4.27416 2 9.1371Z"/>
    <path fill="#fff" transform="translate(7 19) scale(1)" d="M2 9.1371C2 14 6.01943 16.5914 8.96173 18.9109C10 19.7294 11 20.5 12 20.5C13 20.5 14 19.7294 15.0383 18.9109C17.9806 16.5914 22 14 22 9.1371C22 4.27416 16.4998 0.825464 12 5.50063C7.50016 0.825464 2 4.27416 2 9.1371Z"/>
  </g>
</svg>