<svg version="1.1" xmlns="http://www.w3.org/2000/svg"
     width="32px" height="44px" viewBox="0 0 32 44" xml:space="preserve">
  <g>
    <path fill="#EA3200" d="M3.069,0h25.927C30.629,0,32,1.359,32,3.041v37.917c0,1.683-1.371,3.041-3.069,3.041H3.069
      C1.372,43.999,0,42.641,0,40.958V3.041C0,1.359,1.372,0,3.069,0z"/>
      
     <path fill="#fff" d="M9.796,4.464C8.555,5.953,7.902,6.924,7.445,8.088c-0.457,1.1-0.261,2.2-0.261,3.559v1.294H5.877v-1.294
      c0-1.488,0.065-2.588,0.588-3.753S7.445,5.823,8.49,4.529H3.918V3.235h5.877V4.464z"/>

    <path fill="#fff" transform="translate(1.3 13) scale(0.5)" d="M2 9.1371C2 14 6.01943 16.5914 8.96173 18.9109C10 19.7294 11 20.5 12 20.5C13 20.5 14 19.7294 15.0383 18.9109C17.9806 16.5914 22 14 22 9.1371C22 4.27416 16.4998 0.825464 12 5.50063C7.50016 0.825464 2 4.27416 2 9.1371Z"/>
    <path fill="#fff" transform="translate(7 19) scale(1)" d="M2 9.1371C2 14 6.01943 16.5914 8.96173 18.9109C10 19.7294 11 20.5 12 20.5C13 20.5 14 19.7294 15.0383 18.9109C17.9806 16.5914 22 14 22 9.1371C22 4.27416 16.4998 0.825464 12 5.50063C7.50016 0.825464 2 4.27416 2 9.1371Z"/>
  </g>
</svg>