<svg xmlns="http://www.w3.org/2000/svg" xmlns:xlink="http://www.w3.org/1999/xlink" version="1.1" id="Layer_1" x="0px" y="0px" width="32px" height="44px" viewBox="0 0 32 44" enable-background="new 0 0 32 44" xml:space="preserve">
  <g>
    <!-- Background rectangle fill changed -->
    <path fill="#010103" d="M3.069,0h25.927C30.629,0,32,1.359,32,3.042v37.917C32,42.642,30.629,44,28.931,44H3.069
      C1.372,44,0,42.642,0,40.959V3.042C0,1.359,1.372,0,3.069,0L3.069,0z"/>
    

    <path fill="#fff" d="M9.796,4.465C8.555,5.953,7.902,6.924,7.445,8.088c-0.457,1.1-0.261,2.2-0.261,3.559v1.294H5.877v-1.294
      c0-1.488,0.065-2.588,0.588-3.752C6.988,6.729,7.445,5.824,8.49,4.529H3.918V3.235h5.877V4.465z"/>
      
    <!-- White fill replaces red shapes -->
    <path fill="#fff"  transform="translate(4 -13) scale(2.3)" d="M6.922,23.294h2.743L9.6,23.035c-1.176-0.064-1.567-0.453-2.09-0.97c-0.522-0.583-0.458-2.136-0.458-2.136 
      c0.915,1.165,1.502,1.488,1.895,1.488c0.718,0,1.371-0.194,1.894-0.97c0.522-0.777,0.196-1.941-1.633-3.171S6.792,14.3,6.792,14.3 
      s-0.588,1.747-2.417,2.977S2.22,19.67,2.743,20.447c0.588,0.711,1.306,0.906,2.024,0.906c0.458,0,0.979-0.324,1.894-1.488 
      c0,0,0.065,1.553-0.457,2.135s-0.914,0.906-2.09,0.971l-0.065,0.323H6.922L6.922,23.294z"/>

    <path fill="#fff" d="M6.922,23.294h2.743L9.6,23.035c-1.176-0.064-1.567-0.453-2.09-0.97c-0.522-0.583-0.458-2.136-0.458-2.136 
      c0.915,1.165,1.502,1.488,1.895,1.488c0.718,0,1.371-0.194,1.894-0.97c0.522-0.777,0.196-1.941-1.633-3.171S6.792,14.3,6.792,14.3 
      s-0.588,1.747-2.417,2.977S2.22,19.67,2.743,20.447c0.588,0.711,1.306,0.906,2.024,0.906c0.458,0,0.979-0.324,1.894-1.488 
      c0,0,0.065,1.553-0.457,2.135s-0.914,0.906-2.09,0.971l-0.065,0.323H6.922L6.922,23.294z"/>
     
  </g>
</svg>
