<svg version="1.1" xmlns="http://www.w3.org/2000/svg"
     width="32px" height="44px" viewBox="0 0 32 44" xml:space="preserve">
  <g>
    <path fill="#51A533" d="M3.069,0h25.927C30.629,0,32,1.359,32,3.042v37.917C32,42.642,30.629,44,28.931,44H3.069
      C1.372,44,0,42.642,0,40.959V3.042C0,1.359,1.372,0,3.069,0z"/>

    <path fill="none" d="M3.2,43.354c-1.372,0-2.547-1.165-2.547-2.589V3.235c0-1.424,1.175-2.588,2.547-2.588h25.6
      c1.372,0,2.548,1.165,2.548,2.588v37.529c0,1.424-1.176,2.589-2.548,2.589H3.2z"/>

    <path fill="#fff" d="M9.143,5.823c0,1.294-0.588,1.941-1.045,2.071C8.62,8.088,9.012,8.347,9.338,8.8c0.327,0.388,0.458,0.906,0.458,1.423
      c0,0.841-0.261,1.553-0.784,2.006c-0.522,0.453-1.241,0.712-2.089,0.712c-0.914,0-1.633-0.259-2.155-0.712
      c-0.588-0.453-0.849-1.165-0.849-2.006c0-0.518,0.131-0.971,0.458-1.423c0.327-0.388,0.718-0.712,1.306-0.906
      C5.224,7.7,4.571,7.118,4.571,5.823c0-1.941,1.502-2.588,2.351-2.588C7.706,3.235,9.143,3.882,9.143,5.823z M8.555,10.159
      c0-0.518-0.13-0.906-0.457-1.294C7.771,8.541,7.379,8.347,6.922,8.347c-0.523,0-0.914,0.194-1.241,0.518
      c-0.327,0.323-0.523,0.776-0.523,1.294s0.196,0.971,0.523,1.294c0.327,0.323,0.783,0.453,1.306,0.453
      c0.457,0,0.849-0.129,1.175-0.453C8.424,11.129,8.555,10.741,8.555,10.159z M8.032,5.888c0-0.647-0.196-1.618-1.11-1.618
      c-0.979,0-1.241,0.841-1.241,1.553c0,0.777,0.392,1.488,1.241,1.488C7.836,7.312,8.032,6.665,8.032,5.888z"/>

    <path fill="#fff"
      transform="translate(4 -13) scale(2.3)"
      d="M6.857,23.294h2.547L9.339,23.1c-2.417-0.194-2.286-3.494-2.286-3.494
      s0.262,1.747,2.09,1.747c1.959,0,1.959-1.941,1.959-1.941
      c0-1.359-1.306-1.941-1.959-1.941c-0.653,0-0.849,0.129-0.849,0.129
      c0.849-0.776,0.849-0.97,0.849-1.423c-0.065-1.1-1.306-1.941-2.286-1.941
      c-0.979,0-2.286,0.841-2.286,1.941
      c0,0.647,0,0.647,0.849,1.423
      c0,0-0.392-0.129-0.849-0.129
      c-0.653,0-1.959,0.583-1.959,1.941
      c0,0,0.131,1.941,1.959,1.941
      c1.959,0,2.09-1.812,2.09-1.812
      s0.065,3.235-2.286,3.494
      L4.31,23.294H6.857z"/>

    <path fill="#fff" d="M6.857,23.294h2.547L9.339,23.1c-2.417-0.194-2.286-3.494-2.286-3.494
      s0.262,1.747,2.09,1.747c1.959,0,1.959-1.941,1.959-1.941
      c0-1.359-1.306-1.941-1.959-1.941c-0.653,0-0.849,0.129-0.849,0.129
      c0.849-0.776,0.849-0.97,0.849-1.423c-0.065-1.1-1.306-1.941-2.286-1.941
      c-0.979,0-2.286,0.841-2.286,1.941
      c0,0.647,0,0.647,0.849,1.423
      c0,0-0.392-0.129-0.849-0.129
      c-0.653,0-1.959,0.583-1.959,1.941
      c0,0,0.131,1.941,1.959,1.941
      c1.959,0,2.09-1.812,2.09-1.812
      s0.065,3.235-2.286,3.494
      L4.31,23.294H6.857z"/>
  </g>
</svg>