<svg version="1.1" xmlns="http://www.w3.org/2000/svg"
     width="32px" height="44px" viewBox="0 0 32 44" xml:space="preserve">
  <g>
    <path fill="#2D66D1" d="M3.069,0h25.927C30.629,0,32,1.359,32,3.041v37.918C32,42.642,30.629,44,28.931,44H3.069
      C1.372,44,0,42.642,0,40.959V3.041C0,1.359,1.372,0,3.069,0z"/>
      
    <path fill="none" d="M3.2,43.353c-1.371,0-2.547-1.164-2.547-2.588V3.235c0-1.424,1.176-2.588,2.547-2.588h25.6
      c1.371,0,2.547,1.165,2.547,2.588v37.529c0,1.424-1.176,2.588-2.547,2.588H3.2z"/>
      
      <path fill="#ffff" d="M9.143,5.823c0,1.294-0.588,1.941-1.045,2.071C8.621,8.088,9.012,8.347,9.339,8.8
      c0.326,0.389,0.457,0.906,0.457,1.423c0,0.842-0.261,1.553-0.784,2.006c-0.522,0.453-1.241,0.711-2.09,0.711
      c-0.914,0-1.632-0.259-2.155-0.711c-0.587-0.453-0.849-1.165-0.849-2.006c0-0.517,0.131-0.97,0.457-1.423
      c0.327-0.388,0.718-0.711,1.306-0.906C5.225,7.7,4.571,7.118,4.571,5.823c0-1.941,1.502-2.588,2.351-2.588
      C7.706,3.235,9.143,3.882,9.143,5.823z M8.555,10.159c0-0.518-0.131-0.906-0.457-1.294C7.771,8.541,7.379,8.347,6.922,8.347
      c-0.522,0-0.914,0.194-1.241,0.518c-0.326,0.324-0.522,0.776-0.522,1.294s0.196,0.971,0.522,1.294
      c0.327,0.323,0.784,0.453,1.306,0.453c0.457,0,0.849-0.129,1.176-0.453C8.424,11.129,8.555,10.741,8.555,10.159z M8.033,5.888
      c0-0.647-0.196-1.618-1.11-1.618c-0.979,0-1.241,0.841-1.241,1.553c0,0.777,0.392,1.488,1.241,1.488
      C7.837,7.312,8.033,6.665,8.033,5.888z"/>
    <polygon fill="#ffff"  transform="translate(0 -18) scale(2.8)" points="6.857,13.8 10.0,17.276 6.857,20.752 3.714,17.276"/>
      
    <polygon fill="#ffff" transform="translate(-3.5 -6) scale(1.5)" points="6.857,13.8 10.0,17.276 6.857,20.752 3.714,17.276"/>
  </g>
</svg>