<svg version="1.1" xmlns="http://www.w3.org/2000/svg"
     width="32px" height="44px" viewBox="0 0 32 44" xml:space="preserve">
  <g>
    <path fill="#EA3200" d="M3.069,0h25.927C30.629,0,32,1.359,32,3.041v37.917c0,1.683-1.371,3.041-3.069,3.041H3.069
      C1.372,43.999,0,42.641,0,40.958V3.041C0,1.359,1.372,0,3.069,0z"/>

    <path fill="#fff" d="M9.143,5.824c0,1.294-0.587,1.941-1.045,2.071C8.621,8.088,9.012,8.347,9.338,8.8
      c0.327,0.388,0.458,0.906,0.458,1.423c0,0.841-0.261,1.553-0.784,2.006c-0.522,0.453-1.241,0.712-2.09,0.712
      c-0.914,0-1.632-0.259-2.155-0.712c-0.587-0.453-0.849-1.165-0.849-2.006c0-0.518,0.131-0.971,0.457-1.423
      c0.327-0.388,0.718-0.712,1.306-0.906C5.225,7.7,4.571,7.118,4.571,5.824c0-1.941,1.502-2.588,2.351-2.588
      C7.706,3.235,9.143,3.882,9.143,5.824z M8.555,10.159c0-0.518-0.131-0.906-0.458-1.294C7.771,8.542,7.379,8.347,6.922,8.347
      c-0.522,0-0.914,0.194-1.241,0.518c-0.326,0.324-0.522,0.776-0.522,1.294c0,0.518,0.196,0.971,0.522,1.294
      c0.327,0.324,0.784,0.453,1.306,0.453c0.457,0,0.849-0.129,1.175-0.453C8.424,11.13,8.555,10.741,8.555,10.159z M8.033,5.888
      c0-0.647-0.196-1.618-1.11-1.618c-0.979,0-1.241,0.841-1.241,1.553c0,0.776,0.392,1.488,1.241,1.488
      C7.837,7.312,8.033,6.665,8.033,5.888z"/>

    <path fill="#fff" transform="translate(1.3 13) scale(0.5)" d="M2 9.1371C2 14 6.01943 16.5914 8.96173 18.9109C10 19.7294 11 20.5 12 20.5C13 20.5 14 19.7294 15.0383 18.9109C17.9806 16.5914 22 14 22 9.1371C22 4.27416 16.4998 0.825464 12 5.50063C7.50016 0.825464 2 4.27416 2 9.1371Z"/>
    <path fill="#fff" transform="translate(7 19) scale(1)" d="M2 9.1371C2 14 6.01943 16.5914 8.96173 18.9109C10 19.7294 11 20.5 12 20.5C13 20.5 14 19.7294 15.0383 18.9109C17.9806 16.5914 22 14 22 9.1371C22 4.27416 16.4998 0.825464 12 5.50063C7.50016 0.825464 2 4.27416 2 9.1371Z"/>
  </g>
</svg>