<svg xmlns="http://www.w3.org/2000/svg" xmlns:xlink="http://www.w3.org/1999/xlink" version="1.1" id="Layer_1" x="0px" y="0px" width="32px" height="44px" viewBox="0 0 32 44" enable-background="new 0 0 32 44" xml:space="preserve">
  <g>
    <!-- Background rectangle fill changed -->
    <path fill="#010103" d="M3.069,0h25.927C30.629,0,32,1.359,32,3.042v37.917C32,42.642,30.629,44,28.931,44H3.069
      C1.372,44,0,42.642,0,40.959V3.042C0,1.359,1.372,0,3.069,0L3.069,0z"/>
    

   <path fill="#fff" d="M9.143,5.824c0,1.294-0.587,1.941-1.045,2.071C8.621,8.088,9.012,8.347,9.338,8.8c0.327,0.388,0.458,0.906,0.458,1.423
      c0,0.841-0.261,1.553-0.784,2.006c-0.522,0.453-1.241,0.712-2.09,0.712c-0.914,0-1.632-0.259-2.155-0.712
      c-0.587-0.453-0.849-1.165-0.849-2.006c0-0.518,0.131-0.971,0.457-1.423c0.327-0.388,0.718-0.712,1.306-0.906
      C5.225,7.7,4.571,7.118,4.571,5.824c0-1.941,1.502-2.588,2.351-2.588C7.706,3.235,9.143,3.882,9.143,5.824z M8.555,10.159
      c0-0.518-0.131-0.906-0.458-1.294C7.771,8.542,7.379,8.347,6.922,8.347c-0.522,0-0.914,0.194-1.241,0.518
      c-0.326,0.324-0.522,0.776-0.522,1.294c0,0.518,0.196,0.971,0.522,1.294c0.327,0.324,0.784,0.453,1.306,0.453
      c0.457,0,0.849-0.129,1.175-0.453C8.424,11.13,8.555,10.741,8.555,10.159z M8.033,5.888c0-0.647-0.196-1.617-1.11-1.617
      c-0.979,0-1.241,0.841-1.241,1.553c0,0.776,0.392,1.488,1.241,1.488C7.837,7.312,8.033,6.665,8.033,5.888z"/>
      
    <!-- White fill replaces red shapes -->
    <path fill="#fff"  transform="translate(4 -13) scale(2.3)" d="M6.922,23.294h2.743L9.6,23.035c-1.176-0.064-1.567-0.453-2.09-0.97c-0.522-0.583-0.458-2.136-0.458-2.136 
      c0.915,1.165,1.502,1.488,1.895,1.488c0.718,0,1.371-0.194,1.894-0.97c0.522-0.777,0.196-1.941-1.633-3.171S6.792,14.3,6.792,14.3 
      s-0.588,1.747-2.417,2.977S2.22,19.67,2.743,20.447c0.588,0.711,1.306,0.906,2.024,0.906c0.458,0,0.979-0.324,1.894-1.488 
      c0,0,0.065,1.553-0.457,2.135s-0.914,0.906-2.09,0.971l-0.065,0.323H6.922L6.922,23.294z"/>

    <path fill="#fff" d="M6.922,23.294h2.743L9.6,23.035c-1.176-0.064-1.567-0.453-2.09-0.97c-0.522-0.583-0.458-2.136-0.458-2.136 
      c0.915,1.165,1.502,1.488,1.895,1.488c0.718,0,1.371-0.194,1.894-0.97c0.522-0.777,0.196-1.941-1.633-3.171S6.792,14.3,6.792,14.3 
      s-0.588,1.747-2.417,2.977S2.22,19.67,2.743,20.447c0.588,0.711,1.306,0.906,2.024,0.906c0.458,0,0.979-0.324,1.894-1.488 
      c0,0,0.065,1.553-0.457,2.135s-0.914,0.906-2.09,0.971l-0.065,0.323H6.922L6.922,23.294z"/>
     
  </g>
</svg>
