<svg version="1.1" xmlns="http://www.w3.org/2000/svg"
     width="32px" height="44px" viewBox="0 0 32 44" xml:space="preserve">
  <g>
    <path fill="#51A533" d="M3.069,0h25.927C30.629,0,32,1.359,32,3.042v37.917C32,42.642,30.629,44,28.931,44H3.069
      C1.372,44,0,42.642,0,40.959V3.042C0,1.359,1.372,0,3.069,0z"/>

    <path fill="none" d="M3.2,43.354c-1.372,0-2.547-1.165-2.547-2.589V3.235c0-1.424,1.175-2.588,2.547-2.588h25.6
      c1.372,0,2.548,1.165,2.548,2.588v37.529c0,1.424-1.176,2.589-2.548,2.589H3.2z"/>

     <path fill="#fff" d="M6.596,12.941c-0.392,0-0.719-0.065-1.11-0.13c-0.327-0.064-0.653-0.194-0.849-0.259l0.261-0.97
      c0.261,0.129,0.522,0.194,0.784,0.258c0.261,0.065,0.588,0.13,0.915,0.13c0.587,0,1.045-0.259,1.437-0.777
      c0.392-0.518,0.522-1.165,0.522-1.941V8.865C8.294,9.124,7.641,9.641,6.661,9.641c-0.979,0-1.567-0.388-2.024-0.906
      s-0.718-1.424-0.718-2.33c0-0.971,0.261-1.747,0.784-2.33c0.522-0.582,1.241-0.841,2.09-0.841s1.567,0.324,2.155,0.971
      c0.587,0.647,0.849,1.553,0.849,2.718v2.2c0,1.1-0.327,2.006-0.914,2.717C8.229,12.553,7.51,12.941,6.596,12.941z M6.727,8.67
      c0.392,0,1.241-0.129,1.829-1.035V6.794c0-0.776-0.196-1.423-0.522-1.876C7.706,4.465,7.249,4.206,6.792,4.206
      c-0.522,0-0.915,0.259-1.176,0.647C5.29,5.241,5.159,5.759,5.159,6.406c0,0.583,0.065,1.359,0.327,1.747
      C5.812,8.542,6.204,8.67,6.727,8.67z"/>
    <path fill="#fff"
      transform="translate(4 -13) scale(2.3)"
      d="M6.857,23.294h2.547L9.339,23.1c-2.417-0.194-2.286-3.494-2.286-3.494
      s0.262,1.747,2.09,1.747c1.959,0,1.959-1.941,1.959-1.941
      c0-1.359-1.306-1.941-1.959-1.941c-0.653,0-0.849,0.129-0.849,0.129
      c0.849-0.776,0.849-0.97,0.849-1.423c-0.065-1.1-1.306-1.941-2.286-1.941
      c-0.979,0-2.286,0.841-2.286,1.941
      c0,0.647,0,0.647,0.849,1.423
      c0,0-0.392-0.129-0.849-0.129
      c-0.653,0-1.959,0.583-1.959,1.941
      c0,0,0.131,1.941,1.959,1.941
      c1.959,0,2.09-1.812,2.09-1.812
      s0.065,3.235-2.286,3.494
      L4.31,23.294H6.857z"/>

    <path fill="#fff" d="M6.857,23.294h2.547L9.339,23.1c-2.417-0.194-2.286-3.494-2.286-3.494
      s0.262,1.747,2.09,1.747c1.959,0,1.959-1.941,1.959-1.941
      c0-1.359-1.306-1.941-1.959-1.941c-0.653,0-0.849,0.129-0.849,0.129
      c0.849-0.776,0.849-0.97,0.849-1.423c-0.065-1.1-1.306-1.941-2.286-1.941
      c-0.979,0-2.286,0.841-2.286,1.941
      c0,0.647,0,0.647,0.849,1.423
      c0,0-0.392-0.129-0.849-0.129
      c-0.653,0-1.959,0.583-1.959,1.941
      c0,0,0.131,1.941,1.959,1.941
      c1.959,0,2.09-1.812,2.09-1.812
      s0.065,3.235-2.286,3.494
      L4.31,23.294H6.857z"/>
  </g>
</svg>