<svg version="1.1" xmlns="http://www.w3.org/2000/svg"
     width="32px" height="44px" viewBox="0 0 32 44" xml:space="preserve">
  <g>
    <path fill="#2D66D1" d="M3.069,0h25.927C30.629,0,32,1.359,32,3.041v37.918C32,42.642,30.629,44,28.931,44H3.069
      C1.372,44,0,42.642,0,40.959V3.041C0,1.359,1.372,0,3.069,0z"/>
      
    <path fill="none" d="M3.2,43.353c-1.371,0-2.547-1.164-2.547-2.588V3.235c0-1.424,1.176-2.588,2.547-2.588h25.6
      c1.371,0,2.547,1.165,2.547,2.588v37.529c0,1.424-1.176,2.588-2.547,2.588H3.2z"/>
      
   <path fill="#fff" d="M6.596,12.941c-0.392,0-0.719-0.065-1.11-0.129c-0.327-0.064-0.653-0.194-0.849-0.259l0.261-0.971
      c0.261,0.129,0.522,0.194,0.784,0.259c0.261,0.065,0.588,0.129,0.915,0.129c0.587,0,1.045-0.259,1.437-0.776
      s0.522-1.165,0.522-1.941V8.865C8.294,9.124,7.641,9.641,6.661,9.641c-0.979,0-1.567-0.389-2.024-0.906
      C4.18,8.218,3.918,7.312,3.918,6.406c0-0.971,0.261-1.747,0.784-2.33c0.522-0.582,1.241-0.841,2.09-0.841s1.567,0.323,2.155,0.97
      c0.587,0.647,0.849,1.553,0.849,2.718v2.2c0,1.1-0.327,2.006-0.914,2.717C8.229,12.553,7.51,12.941,6.596,12.941z M6.727,8.67
      c0.392,0,1.241-0.129,1.829-1.036V6.794c0-0.776-0.196-1.424-0.522-1.876C7.706,4.464,7.249,4.206,6.792,4.206
      c-0.522,0-0.915,0.259-1.176,0.647C5.29,5.241,5.159,5.759,5.159,6.406c0,0.582,0.065,1.359,0.327,1.747
      C5.812,8.541,6.204,8.67,6.727,8.67z"/>
    <polygon fill="#ffff"  transform="translate(0 -18) scale(2.8)" points="6.857,13.8 10.0,17.276 6.857,20.752 3.714,17.276"/>
      
    <polygon fill="#ffff" transform="translate(-3.5 -6) scale(1.5)" points="6.857,13.8 10.0,17.276 6.857,20.752 3.714,17.276"/>
  </g>
</svg>