<svg version="1.1" xmlns="http://www.w3.org/2000/svg"
     width="32px" height="44px" viewBox="0 0 32 44" xml:space="preserve">
  <g>
    <path fill="#EA3200" d="M3.069,0h25.927C30.629,0,32,1.359,32,3.041v37.917c0,1.683-1.371,3.041-3.069,3.041H3.069
      C1.372,43.999,0,42.641,0,40.958V3.041C0,1.359,1.372,0,3.069,0z"/>

    <path fill="#fff" d="M6.596,12.941c-0.392,0-0.719-0.065-1.11-0.13c-0.327-0.064-0.653-0.194-0.849-0.259l0.261-0.97
      c0.261,0.129,0.522,0.194,0.784,0.259s0.588,0.129,0.915,0.129c0.587,0,1.045-0.259,1.437-0.777
      c0.392-0.517,0.522-1.165,0.522-1.941V8.865C8.294,9.124,7.641,9.641,6.661,9.641c-0.979,0-1.567-0.388-2.024-0.906
      s-0.718-1.424-0.718-2.33c0-0.971,0.261-1.747,0.784-2.33c0.522-0.582,1.241-0.841,2.09-0.841s1.567,0.323,2.155,0.971
      c0.587,0.647,0.849,1.553,0.849,2.718v2.2c0,1.1-0.327,2.006-0.914,2.718C8.229,12.553,7.51,12.941,6.596,12.941z M6.727,8.67
      c0.392,0,1.241-0.129,1.829-1.035V6.794c0-0.776-0.196-1.423-0.522-1.876C7.706,4.465,7.249,4.206,6.792,4.206
      c-0.522,0-0.915,0.259-1.176,0.647C5.29,5.241,5.159,5.759,5.159,6.406c0,0.583,0.065,1.359,0.327,1.747
      C5.812,8.542,6.204,8.67,6.727,8.67z"/>

    <path fill="#fff" transform="translate(1.3 13) scale(0.5)" d="M2 9.1371C2 14 6.01943 16.5914 8.96173 18.9109C10 19.7294 11 20.5 12 20.5C13 20.5 14 19.7294 15.0383 18.9109C17.9806 16.5914 22 14 22 9.1371C22 4.27416 16.4998 0.825464 12 5.50063C7.50016 0.825464 2 4.27416 2 9.1371Z"/>
    <path fill="#fff" transform="translate(7 19) scale(1)" d="M2 9.1371C2 14 6.01943 16.5914 8.96173 18.9109C10 19.7294 11 20.5 12 20.5C13 20.5 14 19.7294 15.0383 18.9109C17.9806 16.5914 22 14 22 9.1371C22 4.27416 16.4998 0.825464 12 5.50063C7.50016 0.825464 2 4.27416 2 9.1371Z"/>
  </g>
</svg>