<svg xmlns="http://www.w3.org/2000/svg" xmlns:xlink="http://www.w3.org/1999/xlink" version="1.1" id="Layer_1" x="0px" y="0px" width="32px" height="44px" viewBox="0 0 32 44" enable-background="new 0 0 32 44" xml:space="preserve">
  <g>
    <!-- Background rectangle fill changed -->
    <path fill="#010103" d="M3.069,0h25.927C30.629,0,32,1.359,32,3.042v37.917C32,42.642,30.629,44,28.931,44H3.069
      C1.372,44,0,42.642,0,40.959V3.042C0,1.359,1.372,0,3.069,0L3.069,0z"/>
    

     <path fill="#fff" d="M6.596,12.941c-0.392,0-0.718-0.064-1.11-0.129c-0.326-0.064-0.653-0.194-0.849-0.259l0.261-0.971   c0.261,0.13,0.522,0.194,0.784,0.259c0.261,0.065,0.588,0.13,0.914,0.13c0.588,0,1.045-0.259,1.437-0.777   c0.392-0.518,0.523-1.165,0.523-1.941V8.865C8.294,9.124,7.641,9.641,6.661,9.641S5.094,9.253,4.637,8.735   c-0.458-0.518-0.718-1.424-0.718-2.33c0-0.971,0.261-1.747,0.784-2.33c0.522-0.582,1.241-0.841,2.089-0.841   c0.849,0,1.567,0.323,2.155,0.971c0.588,0.647,0.849,1.553,0.849,2.718v2.2c0,1.1-0.327,2.006-0.914,2.717   C8.229,12.553,7.51,12.941,6.596,12.941z M6.726,8.67c0.392,0,1.241-0.129,1.829-1.035V6.794c0-0.776-0.196-1.423-0.523-1.876   C7.706,4.464,7.249,4.206,6.792,4.206c-0.522,0-0.914,0.258-1.175,0.647C5.29,5.241,5.159,5.759,5.159,6.406   c0,0.583,0.065,1.359,0.326,1.747C5.812,8.541,6.204,8.67,6.726,8.67z"/>

      
    <!-- White fill replaces red shapes -->
    <path fill="#fff"  transform="translate(4 -13) scale(2.3)" d="M6.922,23.294h2.743L9.6,23.035c-1.176-0.064-1.567-0.453-2.09-0.97c-0.522-0.583-0.458-2.136-0.458-2.136 
      c0.915,1.165,1.502,1.488,1.895,1.488c0.718,0,1.371-0.194,1.894-0.97c0.522-0.777,0.196-1.941-1.633-3.171S6.792,14.3,6.792,14.3 
      s-0.588,1.747-2.417,2.977S2.22,19.67,2.743,20.447c0.588,0.711,1.306,0.906,2.024,0.906c0.458,0,0.979-0.324,1.894-1.488 
      c0,0,0.065,1.553-0.457,2.135s-0.914,0.906-2.09,0.971l-0.065,0.323H6.922L6.922,23.294z"/>

    <path fill="#fff" d="M6.922,23.294h2.743L9.6,23.035c-1.176-0.064-1.567-0.453-2.09-0.97c-0.522-0.583-0.458-2.136-0.458-2.136 
      c0.915,1.165,1.502,1.488,1.895,1.488c0.718,0,1.371-0.194,1.894-0.97c0.522-0.777,0.196-1.941-1.633-3.171S6.792,14.3,6.792,14.3 
      s-0.588,1.747-2.417,2.977S2.22,19.67,2.743,20.447c0.588,0.711,1.306,0.906,2.024,0.906c0.458,0,0.979-0.324,1.894-1.488 
      c0,0,0.065,1.553-0.457,2.135s-0.914,0.906-2.09,0.971l-0.065,0.323H6.922L6.922,23.294z"/>
     
  </g>
</svg>