<svg version="1.1" xmlns="http://www.w3.org/2000/svg"
     width="32px" height="44px" viewBox="0 0 32 44" xml:space="preserve">
  <g>
    <path fill="#2D66D1" d="M3.069,0h25.927C30.629,0,32,1.359,32,3.041v37.918C32,42.642,30.629,44,28.931,44H3.069
      C1.372,44,0,42.642,0,40.959V3.041C0,1.359,1.372,0,3.069,0z"/>
      
    <path fill="none" d="M3.2,43.353c-1.371,0-2.547-1.164-2.547-2.588V3.235c0-1.424,1.176-2.588,2.547-2.588h25.6
      c1.371,0,2.547,1.165,2.547,2.588v37.529c0,1.424-1.176,2.588-2.547,2.588H3.2z"/>
      
  <path fill="#fff" d="M9.796,9.447c0,0.453-0.065,0.841-0.196,1.229c-0.131,0.389-0.261,0.647-0.457,0.971l1.306,1.294
      l-1.045,0.647l-1.11-1.229c-0.261,0.129-0.522,0.324-0.849,0.388c-0.261,0.064-0.587,0.194-0.979,0.194
      c-0.979,0-1.763-0.324-2.351-0.906c-0.588-0.647-0.849-1.488-0.849-2.588V6.729c0-1.1,0.261-1.941,0.849-2.588
      c0.588-0.582,1.372-0.906,2.351-0.906s1.829,0.324,2.417,0.906c0.587,0.583,0.914,1.488,0.914,2.588V9.447z M8.49,6.6
      c0-0.776-0.196-1.229-0.522-1.618c-0.327-0.388-0.85-0.647-1.502-0.647c-0.653,0-1.11,0.194-1.437,0.647
      C4.702,5.371,4.571,5.824,4.571,6.6v2.847c0,0.841,0.196,1.423,0.522,1.812s0.849,0.647,1.437,0.647
      c0.653,0,1.11-0.194,1.502-0.647c0.327-0.388,0.522-1.035,0.522-1.876V6.6H8.49z"/>
    <polygon fill="#ffff"  transform="translate(0 -18) scale(2.8)" points="6.857,13.8 10.0,17.276 6.857,20.752 3.714,17.276"/>
      
    <polygon fill="#ffff" transform="translate(-3.5 -6) scale(1.5)" points="6.857,13.8 10.0,17.276 6.857,20.752 3.714,17.276"/>
  </g>
</svg>