<svg version="1.1" xmlns="http://www.w3.org/2000/svg"
     width="32px" height="44px" viewBox="0 0 32 44" xml:space="preserve">
  <g>
    <path fill="#EA3200" d="M3.069,0h25.927C30.629,0,32,1.359,32,3.041v37.917c0,1.683-1.371,3.041-3.069,3.041H3.069
      C1.372,43.999,0,42.641,0,40.958V3.041C0,1.359,1.372,0,3.069,0z"/>

       <path fill="#ffff" d="M9.796,9.447c0,0.453-0.065,0.841-0.196,1.229c-0.131,0.389-0.261,0.647-0.457,0.971l1.306,1.294
      l-1.045,0.647l-1.11-1.229c-0.261,0.129-0.522,0.323-0.849,0.388c-0.261,0.064-0.588,0.194-0.979,0.194
      c-0.979,0-1.763-0.323-2.351-0.906c-0.588-0.647-0.849-1.488-0.849-2.588V6.729c0-1.1,0.261-1.941,0.849-2.588
      c0.588-0.583,1.372-0.906,2.351-0.906s1.829,0.323,2.417,0.906c0.587,0.582,0.914,1.488,0.914,2.588V9.447z M8.49,6.6
      c0-0.777-0.196-1.229-0.522-1.618C7.641,4.594,7.118,4.335,6.465,4.335c-0.653,0-1.11,0.194-1.437,0.647
      C4.702,5.371,4.571,5.823,4.571,6.6v2.847c0,0.841,0.196,1.423,0.522,1.812s0.849,0.647,1.437,0.647
      c0.653,0,1.11-0.194,1.502-0.647c0.326-0.388,0.522-1.036,0.522-1.876V6.6H8.49z"/>

    <path fill="#fff" transform="translate(1.3 13) scale(0.5)" d="M2 9.1371C2 14 6.01943 16.5914 8.96173 18.9109C10 19.7294 11 20.5 12 20.5C13 20.5 14 19.7294 15.0383 18.9109C17.9806 16.5914 22 14 22 9.1371C22 4.27416 16.4998 0.825464 12 5.50063C7.50016 0.825464 2 4.27416 2 9.1371Z"/>
    <path fill="#fff" transform="translate(7 19) scale(1)" d="M2 9.1371C2 14 6.01943 16.5914 8.96173 18.9109C10 19.7294 11 20.5 12 20.5C13 20.5 14 19.7294 15.0383 18.9109C17.9806 16.5914 22 14 22 9.1371C22 4.27416 16.4998 0.825464 12 5.50063C7.50016 0.825464 2 4.27416 2 9.1371Z"/>
  </g>
</svg>