<svg version="1.1" id="Layer_1" xmlns="http://www.w3.org/2000/svg" x="0" y="0" viewBox="0 0 28 26" xml:space="preserve"><style>.st0{fill:#49499E}</style><path class="st0" d="M28,8.5C28,3.8,24.2,0,19.5,0h-6c-1.4,0-2.8,0.4-4,1h4h1h5C23.6,1,27,4.4,27,8.5c0,0.2,0,0.4,0,0.5l0,0v13 l-5-3.2c-0.2,0.3-0.5,0.5-0.8,0.7L28,24V9l0,0C28,8.9,28,8.7,28,8.5z"/><path class="st0" d="M14.5,3h-6C4,3,0.3,6.6,0,11l0,0v15l9-6h5.5c4.7,0,8.5-3.8,8.5-8.5C23,6.8,19.2,3,14.5,3z M18,15H6v-2h12V15z M18,11H6V9h12V11z"/></svg>
