<svg version="1.1" id="Layer_1" xmlns="http://www.w3.org/2000/svg" x="0" y="0" viewBox="0 0 26 26" xml:space="preserve"><style>.st0{fill-rule:evenodd;clip-rule:evenodd;fill:#49499E}</style><path class="st0" d="M13,0C5.8,0,0,5.8,0,13s5.8,13,13,13s13-5.8,13-13S20.2,0,13,0z M13,25C6.4,25,1,19.6,1,13S6.4,1,13,1 s12,5.4,12,12S19.6,25,13,25z"/><path class="st0" d="M13,3C7.5,3,3,7.5,3,13s4.5,10,10,10s10-4.5,10-10S18.5,3,13,3z M12.1,11.4c0.2,0.2,0.7,0.5,1.3,0.7 c0.6,0.2,1.2,0.5,1.6,0.7c0.4,0.2,0.8,0.4,1.1,0.7c0.3,0.3,0.5,0.6,0.7,0.9c0.2,0.3,0.2,0.7,0.2,1.2c0,0.8-0.3,1.5-0.9,2 c-0.6,0.5-1.4,0.8-2.4,0.9V20h-1.3v-1.5c-1.1-0.1-2-0.5-2.6-1.1C9.3,16.9,9,16.1,9,15.1h2.3c0,0.6,0.2,1,0.5,1.3 c0.3,0.3,0.7,0.5,1.3,0.5c0.5,0,0.9-0.1,1.1-0.3c0.3-0.2,0.4-0.5,0.4-0.9c0-0.4-0.1-0.7-0.4-1C14,14.4,13.6,14.2,13,14 c-0.6-0.2-1.1-0.4-1.5-0.6c-0.4-0.2-0.8-0.4-1.1-0.7c-0.3-0.3-0.5-0.6-0.7-0.9c-0.2-0.3-0.3-0.8-0.3-1.2c0-0.8,0.3-1.5,0.9-2 s1.4-0.8,2.3-0.9V6h1.3v1.6c1,0.1,1.7,0.5,2.2,1.1C16.7,9.3,17,10.1,17,11h-2.3c0-0.6-0.1-1-0.4-1.3c-0.3-0.3-0.6-0.4-1.1-0.4 c-0.4,0-0.8,0.1-1,0.3c-0.2,0.2-0.4,0.5-0.4,0.9C11.8,10.9,11.9,11.2,12.1,11.4z"/></svg>
