<svg version="1.1" id="Layer_1" xmlns="http://www.w3.org/2000/svg" x="0" y="0" viewBox="0 0 32 23" xml:space="preserve"><style>.st0{fill-rule:evenodd;clip-rule:evenodd;fill:#49499E}</style><g id="tables_x5F_icon_6_"><path class="st0" d="M20.5,0h-9C5.1,0,0,5.1,0,11.5C0,17.9,5.1,23,11.5,23h9C26.9,23,32,17.9,32,11.5C32,5.1,26.9,0,20.5,0z M20.5,22h-9C5.7,22,1,17.3,1,11.5C1,5.7,5.7,1,11.5,1h9C26.3,1,31,5.7,31,11.5C31,17.3,26.3,22,20.5,22z"/><path class="st0" d="M29,11.5C29,6.8,25.2,3,20.6,3h-9.1C6.8,3,3,6.8,3,11.5S6.8,20,11.4,20h9.1C25.2,20,29,16.2,29,11.5z M21.3,13.7c-0.5,0.5-1.2,0.8-2,0.8c-0.7,0-1.2-0.2-1.8-0.6c-0.3-0.2-0.7-0.3-0.7-0.2c0,3.3,1.9,3.3,3,3.3l0.6,1.1h-9l0.7-1.1 c1.5,0,3.1,0,3.1-3.3c0-0.2-0.3,0-0.6,0.2c-0.6,0.4-1.2,0.6-1.9,0.6c-0.8,0-1.4-0.3-1.9-0.8c-0.5-0.5-0.8-1.2-0.8-1.9 c0-1.5,2.4-2.9,3-3.5c0.5-0.4,2.5-2.4,2.8-3.1c0.2-0.5,0.6-0.6,0.8,0c0.2,0.6,1.8,2.3,3,3.3c1.2,1,2.6,2.1,2.7,3.3 C22.1,12.5,21.8,13.2,21.3,13.7z"/></g></svg>
