<svg width="34" height="34" viewBox="0 0 34 34" fill="none" xmlns="http://www.w3.org/2000/svg">
<path opacity="0.3" fill-rule="evenodd" clip-rule="evenodd" d="M24 22.2792H21.5V20.4387C22.6 19.0826 23.5 17.339 24 15.3048C24.5 15.3048 25 14.7236 25.2 13.9487C25.5 13.0769 25.3 12.2051 24.8 12.1083C24.6 12.1083 24.5 12.1083 24.3 12.2051C24.2 7.07122 21 2.90598 17 2.90598C13 2.90598 9.8 7.07122 9.7 12.2051C9.5 12.1083 9.4 12.0114 9.2 12.1083C8.7 12.2051 8.5 13.0769 8.8 13.9487C9 14.7236 9.6 15.3048 10 15.3048C10.4 17.2422 11.3 19.0826 12.5 20.4387V22.2792H10C6 22.2792 2 28.0912 2 31.9658C2 33.9031 4.2 34 17.2 34C30.2 34 32 33.9031 32 31.9658C32 28.0912 29 22.2792 24 22.2792Z" fill="black"/>
<path fill-rule="evenodd" clip-rule="evenodd" d="M22 20H12C5.2 20 2 25.9308 2 29.9517C2 31.9622 4.2 32.0627 17.2 32.0627C30.2 32.0627 32 31.9622 32 29.9517C32 26.0313 30.2 20 22 20Z" fill="#BE2E34"/>
<path opacity="0.15" fill-rule="evenodd" clip-rule="evenodd" d="M12 22.0104H22C29.2 22.0104 31.5 26.735 31.9 30.5548C32 30.3538 32 30.1528 32 29.9517C32 25.9308 30.2 20 22 20H12C5.2 20 2 25.9308 2 29.9517C2 30.1528 2 30.4543 2.1 30.6554C2.7 26.735 5.9 22.0104 12 22.0104Z" fill="white"/>
<path opacity="0.3" fill-rule="evenodd" clip-rule="evenodd" d="M17.7 24.1176H16.3C14.2 24.1176 12.5 22.6117 12.5 20.7293V22.6117C12.5 24.4941 14.2 26 16.3 26H17.7C19.8 26 21.5 24.4941 21.5 22.6117V20.7293C21.5 22.6117 19.8 24.1176 17.7 24.1176Z" fill="black"/>
<path fill-rule="evenodd" clip-rule="evenodd" d="M24.8 10.0729C24.6 10.0729 24.5 10.0729 24.3 10.1687C24.2 5.08951 21 0.968658 17 0.968658C13 0.968658 9.80001 5.08951 9.70001 10.1687C9.50001 10.0729 9.40001 9.97703 9.20001 10.0729C8.70001 10.1687 8.50001 11.0312 8.80001 11.8937C9.00001 12.6604 9.60001 13.2354 10 13.2354C10.4 15.152 11.3 16.9729 12.5 18.3146V20.5187C12.5 22.4354 14.2 23.9688 16.3 23.9688H17.7C19.8 23.9688 21.5 22.4354 21.5 20.5187V18.3146C22.6 16.9729 23.5 15.2479 24 13.2354C24.5 13.2354 25 12.6604 25.2 11.8937C25.4 11.0312 25.2 10.2645 24.8 10.0729Z" fill="#EABF73"/>
<path opacity="0.15" fill-rule="evenodd" clip-rule="evenodd" d="M24.3 10.6553C23 6.5869 14.7 7.74929 13.5 4.84331C11 5.52137 10.4 8.62109 9.70001 10.6553C9.50001 9.97721 9.40001 9.00855 9.30001 8.03989C9.30001 8.33049 9.20001 8.62109 9.20001 8.91168C9.20001 10.0741 9.40001 11.7208 9.70001 12.5926C10.5 10.5584 11 7.45869 13.6 6.78063C14.8 9.58975 23.1 8.42735 24.4 12.5926C24.7 11.7208 24.8 10.0741 24.9 8.91168C24.9 8.62109 24.9 8.33049 24.8 8.03989C24.7 9.00855 24.5 9.97721 24.3 10.6553Z" fill="black"/>
<path opacity="0.2" fill-rule="evenodd" clip-rule="evenodd" d="M17 20.3419C14.8 20.3419 12.9 19.1795 11.6 17.339C12.6 20.245 14.6 22.2792 17 22.2792C19.4 22.2792 21.4 20.245 22.4 17.339C21.1 19.1795 19.2 20.3419 17 20.3419Z" fill="black"/>
<path fill-rule="evenodd" clip-rule="evenodd" d="M17 0C12.8 0 9.40001 2.13105 9.20001 6.97436C9.20001 8.13675 9.40001 9.78348 9.70001 10.6553C10.4 8.62108 11 5.52137 13.5 4.8433C14.7 7.74929 23 6.58689 24.3 10.6553C24.6 9.78348 24.7 8.13675 24.8 6.97436C24.6 2.13105 21.2 0 17 0Z" fill="#935C2E"/>
</svg>
