<svg data-name="Layer 1" xmlns="http://www.w3.org/2000/svg" viewBox="0 0 24 24"><path d="M12,0A12,12,0,1,0,24,12,12,12,0,0,0,12,0Zm0,1.5a10.48,10.48,0,0,1,8.91,16,10.08,10.08,0,0,0-5.6-4.95A7,7,0,0,0,16,9.5c0-3-1.79-5.5-4-5.5S8,6.46,8,9.5a7,7,0,0,0,.69,3.08,10.08,10.08,0,0,0-5.6,4.95A10.48,10.48,0,0,1,12,1.5Zm2.5,8c0,2.13-1.17,4-2.5,4s-2.5-1.87-2.5-4,1.17-4,2.5-4S14.5,7.37,14.5,9.5ZM12,22.5a10.47,10.47,0,0,1-7.9-3.61,8.51,8.51,0,0,1,5.47-5A3.36,3.36,0,0,0,12,15a3.36,3.36,0,0,0,2.43-1.14,8.51,8.51,0,0,1,5.47,5A10.47,10.47,0,0,1,12,22.5Z" fill-rule="evenodd"/></svg>