<svg xmlns="http://www.w3.org/2000/svg" xmlns:xlink="http://www.w3.org/1999/xlink" viewBox="0 0 32 32"><symbol id="a" viewBox="-16 -16 32 32"><path fill="none" d="M-16 -16H16V16H-16z"/><path fill="#fff" d="M-1.6 -6.6L3.6 -1.4 5 0 3.6 1.4 -1.6 6.6 -3 5.1 1.1 1 2.1 0 -3 -5.1z"/><path d="M0,12c-3.6,0-6.8-1.6-9-4.1C-9.1,8-9.3,8-9.5,8C-11.4,8-13,6.4-13,4.5S-11.4,1-9.5,1S-6,2.6-6,4.5 c0,1.2-0.6,2.2-1.5,2.8c1.9,1.9,4.5,3.2,7.5,3.2c5.8,0,10.5-4.7,10.5-10.5S5.8-10.5,0-10.5c-4.5,0-8.3,2.8-9.8,6.7l-1.1-1.1 C-9-9.1-4.9-12,0-12c6.6,0,12,5.4,12,12C12,6.6,6.6,12,0,12z M-9.5,2.5c-1.1,0-2,0.9-2,2s0.9,2,2,2s2-0.9,2-2S-8.4,2.5-9.5,2.5z" fill="#fff"/></symbol><use xlink:href="#a" width="32" height="32" x="-16" y="-16" transform="matrix(1 0 0 -1 16 16)" overflow="visible"/></svg>