<svg xmlns="http://www.w3.org/2000/svg" xmlns:xlink="http://www.w3.org/1999/xlink" viewBox="0 0 80 80" preserveAspectRatio="none"><symbol id="a" viewBox="-40 -39 80 80"><path d="M0,41c-22.1,0-40-17.9-40-40s17.9-40,40-40S40-21.1,40,1S22.1,41,0,41z M0-35 c-19.9,0-36,16.1-36,36s16.1,36,36,36S36,20.9,36,1S19.9-35,0-35z" opacity=".1" fill="#231f20"></path><path d="M0,39c-21,0-38-17-38-38s17-38,38-38S38-20,38,1S21,39,0,39z M0-35 c-19.9,0-36,16.1-36,36s16.1,36,36,36S36,20.9,36,1S19.9-35,0-35z" opacity=".7" fill="#aaaabc"></path><circle cy="1" r="36" opacity=".8" fill="#272133"></circle></symbol><use xlink:href="#a" width="80" height="80" x="-40" y="-39" transform="matrix(1 0 0 -1 40 41)" overflow="visible"></use></svg>