<svg xmlns="http://www.w3.org/2000/svg" xmlns:xlink="http://www.w3.org/1999/xlink" viewBox="0 0 32 32"><symbol id="a" viewBox="-16 -16 32 32"><path fill="none" d="M-16 -16H16V16H-16z"/><path d="M10.9-1L13-1l0,2l-2.1,0c-0.1,0.6-0.2,1.2-0.3,1.8 C10.4,3.6,10.1,4.3,9.8,5l1.7,1.1l-1.1,1.7L8.7,6.7C8.1,7.6,7.2,8.4,6.3,9l1,1.8l-1.7,1l-1-1.8c-1.1,0.5-2.4,0.8-3.6,1L1,13l-2,0 l0-2.1c-0.6-0.1-1.2-0.2-1.8-0.3c-0.7-0.2-1.4-0.5-2.1-0.8l-1.1,1.7l-1.7-1.1l1.1-1.7C-7.6,8.1-8.4,7.2-9,6.3l-1.8,1l-1-1.7l1.8-1 c-0.5-1.1-0.8-2.4-1-3.6L-13,1l0-2l2.1,0c0.1-0.6,0.2-1.2,0.3-1.8c0.2-0.7,0.5-1.4,0.8-2.1l-1.7-1.1l1.1-1.7l1.7,1.1 C-8.1-7.6-7.2-8.4-6.3-9l-1-1.8l1.7-1l1,1.8c1.1-0.5,2.4-0.8,3.6-1l0-2.1l2,0l0,2.1c0.6,0.1,1.2,0.2,1.8,0.3 c0.7,0.2,1.4,0.5,2.1,0.8l1.1-1.7l1.7,1.1L6.7-8.7C7.6-8.1,8.4-7.2,9-6.3l1.8-1l1,1.7l-1.8,1C10.5-3.5,10.8-2.2,10.9-1z M2.5,0 c0-1.4-1.1-2.5-2.5-2.5S-2.5-1.4-2.5,0c0,1.4,1.1,2.5,2.5,2.5S2.5,1.4,2.5,0z M-2.5,9.2C-2,9.3-1.5,9.4-1,9.4V3.9 c-1.7-0.4-3-2-3-3.9c0-0.4,0.1-0.7,0.2-1l-4.7-3C-8.8-3.6-9-3-9.2-2.5C-10.5,2.6-7.5,7.8-2.5,9.2z M2.5-9.2c-3.8-1-7.7,0.4-10,3.4 l4.7,3C-2.1-3.5-1.1-4,0-4c1.1,0,2.1,0.4,2.8,1.2l4.8-2.8C6.4-7.3,4.6-8.6,2.5-9.2z M8.7-3.9L3.8-1.1C3.9-0.8,4-0.4,4,0 c0,1.9-1.3,3.4-3,3.9v5.6c3.8-0.4,7.1-3.1,8.2-7C9.8,0.3,9.5-2,8.7-3.9z" fill-rule="evenodd" clip-rule="evenodd" fill="#fff"/></symbol><use xlink:href="#a" width="32" height="32" x="-16" y="-16" transform="matrix(1 0 0 -1 15.997 15.997)" overflow="visible"/></svg>