<svg xmlns="http://www.w3.org/2000/svg" xmlns:xlink="http://www.w3.org/1999/xlink" viewBox="0 0 140 52" preserveAspectRatio="none"><symbol id="a" viewBox="-9 -50 140 52"><path d="M-9-24L-9-24C-9-9.6,2.6,2,17,2h88c14.4,0,26-11.6,26-26v0c0-14.4-11.6-26-26-26H17 C2.6-50-9-38.4-9-24z" opacity=".2" fill="#272133"></path><path d="M-7-24L-7-24C-7-10.7,3.7,0,17,0l88,0c13.3,0,24-10.7,24-24v0c0-13.3-10.7-24-24-24H17 C3.7-48-7-37.3-7-24z" fill="#aaaabc"></path><path d="M105-46H17C4.9-46-5-36.1-5-24v0C-5-11.9,4.9-2,17-2h88c12.1,0,22-9.9,22-22v0 C127-36.1,117.1-46,105-46z" fill="#272133"></path></symbol><use xlink:href="#a" width="140" height="52" x="-9" y="-50" transform="matrix(1 0 0 -1 9 2)" overflow="visible"></use></svg>