<svg xmlns="http://www.w3.org/2000/svg" xmlns:xlink="http://www.w3.org/1999/xlink" viewBox="0 0 32 32"><symbol id="a" viewBox="-16 -16.4 32 32"><path fill="none" d="M-16 -16.4H16V15.600000000000001H-16z"/><path d="M8.6,1.2C8.9,0.4,9-0.5,9-1.4c0-5-4-9-9-9s-9,4-9,9 c0,0.9,0.1,1.8,0.4,2.6l-1.6,1.6C-10.7,1.5-11,0.1-11-1.4c0-6.1,4.9-11,11-11s11,4.9,11,11c0,1.5-0.3,2.9-0.8,4.2L8.6,1.2z" fill-rule="evenodd" clip-rule="evenodd" fill="#fff"/><path fill="#fff" d="M6.4 6L1.4 11 0 12.4 -1.4 11 -6.4 6 -5 4.6 -1 8.6 -1 -3.4 1 -3.4 1 8.6 5 4.6z"/></symbol><use xlink:href="#a" width="32" height="32" x="-16" y="-16.4" transform="matrix(1 0 0 -1 16 15.586)" overflow="visible"/></svg>