<svg xmlns="http://www.w3.org/2000/svg" xmlns:xlink="http://www.w3.org/1999/xlink" viewBox="0 0 32 32"><symbol id="a" viewBox="-17.4 -16 32 32"><path fill="none" d="M-17.4 -16H14.600000000000001V16H-17.4z"/><path fill="#fff" d="M11.4 0.4L10 -1 5 -6 3.6 -4.6 7.6 -0.6 -4.4 -0.6 -4.4 1.4 7.6 1.4 3.6 5.4 5 6.8 10 1.8z"/><path fill="#fff" d="M0.6 6L0.6 10 -2.4 10 -6.4 10 -11.4 10 -11.4 -3 -11.4 -5 -11.4 -10 -6.4 -10 -2.4 -10 0.6 -10 0.6 -6 -1.4 -6 -1.4 -8 -2.4 -8 -6.4 -8 -9.4 -8 -9.4 -5 -9.4 -3 -9.4 8 -6.4 8 -2.4 8 -1.4 8 -1.4 6z"/></symbol><use xlink:href="#a" width="32" height="32" x="-17.4" y="-16" transform="matrix(1 0 0 -1 17.414 16)" overflow="visible"/></svg>