<svg xmlns="http://www.w3.org/2000/svg" xmlns:xlink="http://www.w3.org/1999/xlink" viewBox="0 0 64 40" preserveAspectRatio="none"><symbol id="a" viewBox="-32 -20 64 40"><g fill-rule="evenodd" clip-rule="evenodd" fill="#fff"><path d="M12,20h-24c-11,0-20-9-20-20v0c0-11,9-20,20-20h24 c11,0,20,9,20,20v0C32,11,23,20,12,20z M12-18h-24c-9.9,0-18,8.1-18,18s8.1,18,18,18h24c9.9,0,18-8.1,18-18S21.9-18,12-18z"/><path d="M12,12h-24c-6.6,0-12-5.4-12-12s5.4-12,12-12h24 c6.6,0,12,5.4,12,12S18.6,12,12,12z M12-10h-24c-5.5,0-10,4.5-10,10s4.5,10,10,10h24c5.5,0,10-4.5,10-10S17.5-10,12-10z"/></g></symbol><use xlink:href="#a" width="64" height="40" x="-32" y="-20" transform="matrix(1 0 0 -1 32 20)" overflow="visible"/></svg>