<svg xmlns="http://www.w3.org/2000/svg" viewBox="0 0 560 848"><path d="M280,812c-143.6,0-256-98.2-256-218.9l0-0.7l23.6-406.6l0-0.6c0.3-44.4,21.7-79.8,69.1-115	C160.6,37.8,218.5,20,280,20c61.5,0,119.4,17.8,163.2,50.2c47.5,35.1,68.8,70.6,69.2,115l0,0.6L536,592.6l0,0.4	C536,713.7,423.6,812,280,812z" fill-rule="evenodd" clip-rule="evenodd" fill="#48b36f"/><radialGradient id="a" cx="277.327" cy="421.986" r="336.399" gradientTransform="matrix(1.0031 0 0 1.6437 1.803 -277.635)" gradientUnits="userSpaceOnUse"><stop offset="0" stop-opacity="0"/><stop offset=".535" stop-opacity=".2"/><stop offset="1" stop-opacity=".6"/></radialGradient><path d="M280,812c-143.6,0-256-98.2-256-218.9l0-0.7l23.6-406.6l0-0.6c0.3-44.4,21.7-79.8,69.1-115	C160.6,37.8,218.5,20,280,20c61.5,0,119.4,17.8,163.2,50.2c47.5,35.1,68.8,70.6,69.2,115l0,0.6L536,592.6l0,0.4	C536,713.7,423.6,812,280,812z" fill-rule="evenodd" clip-rule="evenodd" fill="url(#a)"/><radialGradient id="b" cx="277.327" cy="417.586" r="426.813" gradientTransform="matrix(1.0031 0 0 1.2379 1.803 -105.28)" gradientUnits="userSpaceOnUse"><stop offset="0" stop-opacity="0"/><stop offset=".535" stop-opacity=".2"/><stop offset="1" stop-opacity=".6"/></radialGradient><path d="M280,786c-63.8,0-123.2-20.9-167.3-58.8c-42.9-36.9-66.5-85.9-66.6-138.1L69.7,182l0-1.1	c0.3-37.5,18.3-66.7,60.3-97.8c40-29.6,93.2-45.8,149.9-45.8c56.7,0,109.9,16.3,149.9,45.8c42,31,60.1,60.3,60.4,97.8l0,1.3	l23.6,406.6c-0.1,52.2-23.7,101.3-66.6,138.2C403.2,765.1,343.8,786,280,786z" fill-rule="evenodd" clip-rule="evenodd" fill="url(#b)"/><path d="M494.7,182l0-1c-0.3-39-18.9-69.3-62.1-101.3C391.8,49.6,337.6,33,280,33c-57.7,0-111.9,16.6-152.6,46.7	c-43.2,32-61.8,62.2-62.1,101.2l0,1.1L41.7,589c0.1,53.5,24.3,103.7,68.1,141.4c44.9,38.6,105.3,59.9,170.2,59.9	c64.9,0,125.3-21.3,170.2-59.9c43.9-37.8,68.1-88.1,68.1-141.6L494.7,182z M447.3,727.1C403.2,765.1,343.8,786,280,786	c-63.8,0-123.2-20.9-167.3-58.8c-42.9-36.9-66.5-85.9-66.6-138.1L69.7,182l0-1.1c0.3-37.5,18.3-66.7,60.3-97.8	c40-29.6,93.2-45.8,149.9-45.8c56.7,0,109.9,16.3,149.9,45.8c42,31,60.1,60.3,60.4,97.8l0,1.3l23.6,406.6	C513.9,641.1,490.2,690.1,447.3,727.1z" opacity=".1" fill-rule="evenodd" clip-rule="evenodd" fill="#fff"/></svg>