<svg version="1.1" id="table_x5F_vert" xmlns="http://www.w3.org/2000/svg" x="0" y="0" viewBox="0 0 560 848" xml:space="preserve"><style>.st1,.st2{fill-rule:evenodd;clip-rule:evenodd;fill:#593822}.st2{fill:#c98c50}</style><g id="border_1_"><path d="M560,599.4l-27.8-411.6c-0.4-51.6-25-94-77.3-133.4C407.8,18.9,345.7-0.7,280-0.7c-65.7,0-127.8,19.6-175,55.1 c-52.3,39.4-76.8,81.8-77.2,133.3L0,598.9l0,1.7c0,134,125.6,243,280,243s280-109.1,280-243.1L560,599.4z M280,807 c-140.1,0-249.8-97.5-249.8-217.3l0-0.7l23.1-403.6l0-0.6c0.3-44.1,21.1-79.3,67.5-114.1C163.4,38.6,220,20.9,280,20.9 c60,0,116.5,17.7,159.2,49.8c46.3,34.8,67.2,70,67.5,114.2l0,0.6l23.1,403.8l0,0.4C529.8,709.5,420.1,807,280,807z" fill-rule="evenodd" clip-rule="evenodd" fill="#935c2e"/><path class="st1" d="M529.8 584.9l-23.1-403.8 0-.6c-.4-44.1-21.2-79.3-67.5-114.2C396.5 34.3 340 16.6 280 16.6c-60 0-116.6 17.7-159.3 49.8-46.3 34.8-67.1 70-67.5 114.1l0 .6L30.2 584.7l0 .7c0 1.1 0 2.1 0 3.2l23-403.1 0-.6c.3-44.1 21.1-79.3 67.5-114.1C163.4 38.6 220 20.9 280 20.9c60 0 116.5 17.7 159.2 49.8 46.3 34.8 67.2 70 67.5 114.2l0 .6 23 403c0-1 0-2.1 0-3.1L529.8 584.9zM560 598.9c-1.7 132.9-126.6 240.5-280 240.5C126.6 839.3 1.7 731.7 0 598.9l0 1.7c0 134 125.6 243 280 243s280-109.1 280-243.1l0-1.1L560 598.9z"/><g><path class="st2" d="M0,603.2l27.8-411.1c0.4-51.6,24.9-93.9,77.2-133.3C152.2,23.2,214.3,3.6,280,3.6 c65.7,0,127.8,19.6,174.9,55.1c52.3,39.4,76.8,81.8,77.3,133.4L560,603.2c0-0.9,0-1.8,0-2.7l0-1.1l-27.8-411.6 c-0.4-51.6-25-94-77.3-133.4C407.8,18.9,345.7-0.7,280-0.7c-65.7,0-127.8,19.6-175,55.1c-52.3,39.4-76.8,81.8-77.2,133.3L0,598.9 l0,1.7C0,601.5,0,602.4,0,603.2L0,603.2z"/><path class="st2" d="M280,811.3c140.1,0,249.8-97.6,249.8-217.4l0-0.4l0-0.8C527.9,711.2,418.9,807,280,807 c-138.9,0-247.9-95.8-249.8-214.2l0,0.4l0,0.7C30.2,713.8,139.9,811.3,280,811.3z"/></g></g></svg>